<?xml version="1.0" encoding="utf-8"?>
<!-- Generator: Adobe Illustrator 24.1.1, SVG Export Plug-In . SVG Version: 6.00 Build 0)  -->
<svg version="1.1" id="Layer_1" xmlns="http://www.w3.org/2000/svg" xmlns:xlink="http://www.w3.org/1999/xlink" x="0px" y="0px"
	 viewBox="0 0 161 35" style="enable-background:new 0 0 161 35;" xml:space="preserve">
<style type="text/css">
	.st0{fill:#049CBF;}
	.st1{fill:#F4F4F4;}
</style>
<g>
	<g>
		<path class="st0" d="M8.06,4.7c0.05-0.48,0.25-0.66,0.61-0.54c0.36,0.11,0.61,0.27,0.75,0.49c0.2,0.58,0.36,1.16,0.47,1.73
			s0.2,1.13,0.26,1.66c0.13,0.98,0.2,1.82,0.21,2.51c0.02,0.7,0.07,1.09,0.16,1.15c0.08-0.08,0.2-0.62,0.38-1.62
			c0.17-0.98,0.43-2,0.77-3.05c0.23-0.7,0.51-1.33,0.82-1.88c0.31-0.56,0.68-0.92,1.1-1.08c0.23-0.09,0.47-0.14,0.7-0.14
			c0.53,0,1.04,0.2,1.52,0.61c0.7,0.59,1.04,1.34,1.01,2.25c-0.02,0.75-0.13,1.45-0.35,2.11c-0.23,0.67-0.51,1.29-0.82,1.85
			c-0.59,1.05-1.23,1.88-1.92,2.51c-0.67,0.63-1.05,0.99-1.15,1.1c0.27-0.05,0.59-0.07,0.96-0.07c0.38,0.02,0.77,0.06,1.17,0.14
			c0.75,0.16,1.46,0.49,2.13,1.01c0.66,0.52,1.01,1.34,1.05,2.46v0.38c0,1.5-0.44,2.53-1.31,3.09c-0.97,0.59-2.25,0.63-3.84,0.09
			c-0.28-0.09-0.42-0.3-0.42-0.63c0.02-0.31,0.09-0.57,0.21-0.77h0.16c0.06,0.02,0.12,0.06,0.16,0.14c-0.06,0.47,0.22,0.73,0.84,0.8
			s1.13-0.08,1.52-0.42c0.27-0.22,0.42-0.66,0.47-1.34s-0.02-1.34-0.19-2.02c-0.11-0.45-0.27-0.87-0.49-1.24
			c-0.22-0.38-0.48-0.65-0.8-0.82c-0.52-0.28-1.11-0.38-1.78-0.3s-1.16,0.2-1.45,0.35c0.03,1.2,0.09,2.48,0.16,3.82
			c0.06,1.33,0.09,2.45,0.07,3.38c-0.09,0.22-0.32,0.33-0.68,0.33c-0.13,0-0.27-0.02-0.45-0.05c-0.63-0.09-1.11-0.31-1.45-0.66
			c-0.09-0.09-0.16-0.19-0.21-0.28c-0.06-0.11-0.1-0.22-0.12-0.33c-0.36-2.55-0.54-4.92-0.54-7.13v-0.4
			c0.02-2.33,0.07-4.27,0.16-5.84c0.06-0.84,0.11-1.55,0.14-2.13S8.11,4.95,8.06,4.7z M14.2,4.51c-0.02-0.02-0.03-0.02-0.05-0.02
			c-0.25,0-0.6,0.42-1.05,1.27c-0.47,0.92-0.91,2.09-1.31,3.52c-0.22,0.77-0.41,1.58-0.56,2.44c-0.16,0.88-0.26,1.76-0.3,2.65
			c0.11,0.03,0.22,0.05,0.33,0.05c0.13,0,0.26-0.02,0.4-0.07c0.23-0.09,0.4-0.21,0.49-0.35c0.34-0.52,0.67-1.16,0.98-1.95
			c0.33-0.78,0.61-1.59,0.84-2.41c0.34-1.23,0.56-2.38,0.66-3.42c0.02-0.2,0.02-0.39,0.02-0.56C14.65,4.95,14.5,4.57,14.2,4.51z"/>
		<path class="st0" d="M18.63,12.31c0.13-0.39,0.34-0.59,0.66-0.59h0.07c0.36,0.05,0.72,0.25,1.08,0.61
			c0.19,0.19,0.36,0.42,0.52,0.7c0.17,0.28,0.31,0.59,0.42,0.94c0.02,0.41,0,0.93-0.05,1.57c-0.05,0.64-0.09,1.3-0.14,1.99
			c-0.08,1.02-0.1,1.95-0.07,2.81c0.02,0.84,0.21,1.27,0.59,1.29c0.39,0,0.81-0.48,1.27-1.45c0.44-0.97,0.8-2.08,1.08-3.33
			c0.16-0.67,0.27-1.34,0.35-2.02c0.08-0.66,0.11-1.27,0.1-1.83c0.08-0.34,0.42-0.47,1.02-0.38c0.6,0.11,0.91,0.4,0.94,0.87
			c-0.03,0.42-0.09,1-0.19,1.73c-0.09,0.75-0.19,1.54-0.28,2.37c-0.05,0.42-0.09,0.85-0.12,1.29c-0.03,0.42-0.05,0.83-0.07,1.22
			c-0.03,0.73-0.02,1.35,0.05,1.85c0.08,0.5,0.23,0.78,0.47,0.84c0.28,0.05,0.68-0.29,1.2-1.01c0.52-0.73,1.02-1.53,1.5-2.39
			c0.31-0.58,0.6-1.12,0.87-1.62c0.27-0.52,0.45-0.91,0.56-1.17c0.13-0.03,0.25-0.04,0.38-0.02c0.13,0,0.25,0.05,0.38,0.14
			c-0.05,0.11-0.12,0.27-0.21,0.47s-0.21,0.45-0.35,0.73c-0.23,0.52-0.53,1.11-0.89,1.78c-0.34,0.67-0.72,1.3-1.13,1.88
			c-0.41,0.59-0.82,1.08-1.24,1.45c-0.34,0.31-0.67,0.47-0.98,0.47c-0.08,0-0.15-0.01-0.21-0.02c-0.38-0.09-0.69-0.27-0.92-0.54
			c-0.24-0.27-0.43-0.57-0.57-0.91c-0.27-0.66-0.4-1.36-0.4-2.11c-0.02-0.75-0.02-1.3-0.02-1.66c-0.08,0.2-0.21,0.59-0.4,1.15
			c-0.2,0.58-0.46,1.12-0.77,1.62c-0.22,0.34-0.45,0.63-0.7,0.87c-0.25,0.22-0.51,0.33-0.77,0.33c-0.56-0.02-1.02-0.15-1.38-0.4
			c-0.34-0.25-0.63-0.59-0.84-1.01c-0.22-0.44-0.38-0.94-0.47-1.5c-0.09-0.58-0.15-1.17-0.16-1.78c-0.03-1.11-0.01-2.18,0.07-3.21
			C18.9,13.31,18.84,12.64,18.63,12.31z"/>
		<path class="st0" d="M32.65,13.25c-0.06,0.14-0.23,0.25-0.49,0.33c-0.28,0.08-0.47,0-0.56-0.23c0-0.38-0.04-0.68-0.12-0.91
			s-0.18-0.41-0.3-0.52c-0.28-0.27-0.6-0.25-0.96,0.05c-0.34,0.28-0.49,0.74-0.45,1.38c0.03,0.25,0.12,0.48,0.26,0.7
			s0.31,0.43,0.52,0.63c0.41,0.36,0.9,0.7,1.48,1.03c0.56,0.33,1.12,0.7,1.66,1.13c0.44,0.34,0.82,0.73,1.15,1.17
			c0.11,0.14,0.2,0.3,0.28,0.47c0.09-0.06,0.2-0.13,0.3-0.19c0.81-0.47,1.42-1.1,1.83-1.9c0.14-0.05,0.27-0.07,0.38-0.07
			s0.23,0.05,0.35,0.14c-0.14,0.34-0.33,0.66-0.56,0.94c-0.22,0.27-0.47,0.52-0.75,0.75c-0.41,0.36-0.83,0.68-1.27,0.96
			c0.05,0.16,0.09,0.32,0.12,0.49c0.09,0.55,0.09,1.07-0.02,1.57c-0.09,0.5-0.26,0.96-0.49,1.38c-0.19,0.34-0.41,0.66-0.66,0.94
			c-0.27,0.28-0.55,0.52-0.84,0.7c-0.55,0.38-1.12,0.58-1.71,0.61h-0.14c-0.55,0-1.02-0.2-1.43-0.59c-0.36-0.36-0.41-0.78-0.14-1.27
			c0.25-0.47,0.65-0.97,1.2-1.5c0.3-0.28,0.62-0.56,0.96-0.84l0.45-0.35c-0.02-0.16-0.04-0.3-0.07-0.45
			c-0.14-0.56-0.55-1.15-1.22-1.76c-0.66-0.59-1.28-1.23-1.88-1.92c-0.31-0.36-0.58-0.74-0.8-1.15c-0.22-0.39-0.34-0.8-0.38-1.24
			V13.6c0-0.27,0.05-0.51,0.14-0.73c0.11-0.28,0.27-0.52,0.49-0.73c0.38-0.39,0.84-0.64,1.41-0.75c0.16-0.05,0.31-0.07,0.47-0.07
			c0.36,0,0.7,0.1,1.01,0.3c0.2,0.16,0.38,0.37,0.54,0.63C32.53,12.52,32.62,12.84,32.65,13.25z M31.92,21.88
			c-0.53,0.48-0.93,0.91-1.2,1.27c-0.14,0.19-0.23,0.36-0.28,0.52c-0.05,0.14-0.02,0.25,0.07,0.33c0.2,0.19,0.48,0.11,0.84-0.23
			c0.36-0.36,0.66-0.83,0.91-1.41c0.14-0.33,0.24-0.69,0.3-1.08C32.36,21.47,32.14,21.67,31.92,21.88z"/>
		<path class="st0" d="M41.72,14.09c0.06-0.33,0.08-0.69,0.05-1.08c-0.05-0.41-0.2-0.63-0.45-0.66c-0.3-0.03-0.59,0.37-0.89,1.2
			s-0.52,1.8-0.68,2.93c-0.13,0.88-0.18,1.77-0.16,2.67s0.13,1.66,0.35,2.27c0.11,0.34,0.26,0.63,0.45,0.84s0.41,0.36,0.68,0.42
			c0.53,0.13,1.14-0.19,1.83-0.94c0.67-0.73,1.3-1.57,1.9-2.51c0.33-0.52,0.62-1.02,0.87-1.5c0.27-0.5,0.49-0.94,0.68-1.31
			c0.13-0.08,0.25-0.12,0.38-0.12c0.13,0.02,0.24,0.08,0.35,0.19c-0.19,0.42-0.41,0.91-0.68,1.45c-0.28,0.53-0.59,1.08-0.94,1.64
			c-0.63,1.02-1.34,1.92-2.16,2.72c-0.67,0.66-1.38,0.98-2.11,0.98c-0.14,0-0.28-0.01-0.42-0.02c-0.75-0.13-1.4-0.4-1.95-0.82
			c-0.55-0.44-0.99-0.96-1.34-1.57c-0.58-1.06-0.87-2.3-0.87-3.73v-0.28c0.03-1.53,0.37-2.91,1.01-4.15c0.23-0.44,0.5-0.79,0.8-1.05
			c0.31-0.27,0.63-0.45,0.96-0.56c0.28-0.11,0.56-0.16,0.84-0.16c0.47,0,0.92,0.15,1.36,0.45c0.69,0.45,1.04,1.15,1.05,2.09
			c0,0.17-0.01,0.34-0.02,0.49s-0.04,0.31-0.07,0.47c-0.13,0.13-0.29,0.14-0.49,0.05C41.85,14.38,41.74,14.25,41.72,14.09z"/>
		<path class="st0" d="M53.02,12.15c0.05,0.06,0.06,0.13,0.05,0.21c-0.02,0.06-0.06,0.11-0.14,0.14c-0.28-0.28-0.56-0.43-0.84-0.45
			s-0.56,0.06-0.84,0.23c-0.48,0.31-0.94,0.88-1.36,1.71c-0.41,0.81-0.74,1.68-1.01,2.6c-0.33,1.17-0.5,2.25-0.52,3.23
			c0,0.97,0.23,1.45,0.68,1.45c0.2,0,0.45-0.33,0.75-0.98c0.3-0.67,0.59-1.44,0.89-2.3c0.38-1.06,0.7-2.09,0.98-3.09
			s0.44-1.55,0.47-1.66c0.09-0.23,0.4-0.39,0.91-0.47c0.53-0.09,0.91-0.04,1.13,0.16c0.06,0.05,0.1,0.11,0.12,0.19
			c0.03,0.06,0.04,0.14,0.02,0.23c-0.11-0.03-0.26,0.38-0.45,1.22c-0.19,0.83-0.37,1.79-0.54,2.88c-0.14,0.86-0.27,1.73-0.38,2.6
			c-0.13,0.86-0.2,1.57-0.23,2.13c-0.02,0.3-0.02,0.53,0,0.7s0.05,0.27,0.09,0.28c0.23,0.03,0.58-0.32,1.03-1.05
			c0.47-0.75,0.93-1.57,1.38-2.46c0.38-0.73,0.72-1.43,1.03-2.09c0.3-0.64,0.51-1.08,0.63-1.31c0.11-0.03,0.23-0.04,0.35-0.02
			s0.25,0.06,0.38,0.14c-0.11,0.2-0.32,0.66-0.63,1.36c-0.3,0.7-0.66,1.45-1.08,2.25c-0.52,0.98-1.05,1.89-1.62,2.72
			c-0.55,0.78-1.02,1.17-1.43,1.17h-0.07c-0.38-0.05-0.67-0.18-0.89-0.4s-0.38-0.5-0.49-0.84c-0.09-0.28-0.16-0.59-0.19-0.94
			s-0.04-0.7-0.02-1.05c0.03-0.67,0.1-1.34,0.21-1.99c0.09-0.61,0.17-1.12,0.23-1.52c-0.05,0.17-0.12,0.42-0.21,0.75
			c-0.11,0.38-0.25,0.79-0.42,1.24c-0.27,0.67-0.55,1.31-0.87,1.92c-0.33,0.61-0.64,0.93-0.94,0.96c-0.83,0.08-1.61-0.09-2.34-0.49
			s-1.11-1.05-1.13-1.95v-0.26c0-1.09,0.17-2.14,0.52-3.14c0.38-1.06,0.84-1.98,1.38-2.74c0.3-0.41,0.6-0.76,0.91-1.05
			s0.62-0.52,0.91-0.68c0.14-0.08,0.31-0.14,0.52-0.19c0.22-0.05,0.45-0.08,0.68-0.09h0.28c0.36,0,0.72,0.05,1.08,0.14
			C52.48,11.67,52.81,11.87,53.02,12.15z"/>
		<path class="st0" d="M58.36,10.98c0.17,0.02,0.31,0.09,0.42,0.23s0.2,0.32,0.26,0.54c0.13,0.42,0.2,0.95,0.21,1.57
			c0.02,0.61,0.04,1.22,0.07,1.83c0.09-0.36,0.3-0.84,0.61-1.45c0.31-0.59,0.69-1.11,1.13-1.55c0.23-0.23,0.48-0.42,0.75-0.56
			c0.25-0.14,0.51-0.2,0.77-0.19c0.66,0.05,1.06,0.57,1.22,1.57c0.16,0.98,0.2,2.11,0.14,3.38c-0.03,0.55-0.07,1.09-0.12,1.64
			s-0.09,1.08-0.14,1.59c-0.11,0.94-0.19,1.73-0.23,2.39s-0.01,1,0.12,1.03c0.31,0.09,0.72-0.21,1.22-0.91s0.99-1.48,1.48-2.34
			c0.31-0.58,0.6-1.13,0.87-1.66c0.28-0.53,0.49-0.95,0.63-1.27c0.13-0.06,0.25-0.09,0.38-0.09c0.13-0.02,0.26,0.04,0.4,0.16
			c-0.16,0.33-0.37,0.78-0.63,1.36c-0.28,0.59-0.59,1.21-0.94,1.85c-0.53,0.95-1.12,1.82-1.76,2.6c-0.53,0.66-1.05,0.98-1.55,0.98
			c-0.08,0-0.16-0.01-0.26-0.02c-0.36-0.09-0.65-0.27-0.87-0.54c-0.23-0.27-0.42-0.6-0.56-1.01c-0.22-0.64-0.33-1.4-0.33-2.27
			c-0.02-0.88,0.02-1.77,0.09-2.67c0.13-1.33,0.27-2.52,0.42-3.59c0.17-1.06,0.18-1.6,0.02-1.62c-0.27-0.02-0.58,0.2-0.94,0.66
			c-0.38,0.45-0.72,0.98-1.03,1.57c-0.17,0.31-0.33,0.63-0.47,0.94c-0.14,0.33-0.26,0.63-0.35,0.91c-0.02,0.3-0.02,0.62-0.02,0.96
			c-0.02,0.34-0.03,0.68-0.05,1.01c-0.03,0.63-0.07,1.19-0.12,1.69c-0.05,0.52-0.1,0.84-0.16,0.98c-0.41,0.42-0.84,0.71-1.31,0.87
			s-0.88-0.12-1.22-0.82c-0.03-0.34-0.05-0.7-0.05-1.05c0-0.33,0.02-0.66,0.05-0.98c0.05-0.7,0.12-1.39,0.21-2.06
			c0.17-1.23,0.33-2.33,0.47-3.28c0.14-0.97,0.07-1.56-0.21-1.78c0.16-0.25,0.36-0.42,0.61-0.52c0.19-0.06,0.38-0.09,0.56-0.09
			C58.23,10.95,58.3,10.96,58.36,10.98z"/>
		<path class="st0" d="M76.34,5.31c0.03,0.16,0.04,0.45,0.02,0.87c-0.03,0.42-0.08,0.92-0.14,1.5c-0.13,1.09-0.31,2.41-0.56,3.94
			c-0.25,1.52-0.5,3.02-0.75,4.52c-0.13,0.66-0.23,1.3-0.33,1.92c-0.11,0.61-0.2,1.19-0.28,1.73c-0.16,1-0.27,1.82-0.35,2.46
			c-0.06,0.64-0.05,0.97,0.02,0.98c0.41,0.13,0.92-0.22,1.55-1.03s1.22-1.7,1.78-2.67c0.38-0.64,0.7-1.23,0.98-1.78
			c0.3-0.56,0.51-0.97,0.63-1.22c0.11-0.08,0.23-0.11,0.35-0.09c0.14,0.02,0.27,0.07,0.4,0.16c-0.11,0.23-0.31,0.65-0.61,1.24
			c-0.28,0.59-0.62,1.24-1.01,1.95c-0.22,0.38-0.45,0.75-0.68,1.13s-0.48,0.73-0.73,1.08c-0.47,0.64-0.95,1.16-1.45,1.57
			c-0.39,0.31-0.77,0.47-1.13,0.47c-0.11,0-0.21-0.02-0.3-0.05c-0.25-0.06-0.46-0.19-0.63-0.38c-0.16-0.2-0.29-0.45-0.4-0.75
			c-0.2-0.55-0.32-1.22-0.35-2.02l-0.02-0.8c-0.22,0.47-0.46,0.89-0.73,1.27c-0.36,0.52-0.72,0.78-1.08,0.8
			c-0.98,0.08-1.79-0.2-2.41-0.82c-0.63-0.61-1.02-1.44-1.17-2.48c-0.05-0.31-0.07-0.63-0.07-0.96c0-0.28,0.02-0.57,0.05-0.87
			c0.06-0.66,0.21-1.35,0.45-2.09c0.2-0.63,0.48-1.14,0.82-1.55c0.36-0.41,0.74-0.71,1.15-0.91c0.77-0.36,1.52-0.4,2.27-0.12
			c0.75,0.3,1.21,0.84,1.38,1.62c0.05-0.3,0.13-0.78,0.23-1.45c0.13-0.67,0.24-1.4,0.35-2.18c0.06-0.41,0.13-0.82,0.19-1.24
			s0.11-0.82,0.14-1.2c0.08-0.72,0.11-1.34,0.09-1.85s-0.11-0.82-0.28-0.91c0.09-0.44,0.35-0.74,0.77-0.91
			c0.17-0.06,0.34-0.1,0.52-0.12c0.22,0,0.44,0.06,0.66,0.19c0.14,0.09,0.27,0.23,0.4,0.4S76.29,5.04,76.34,5.31z M72.42,18.45
			c0.06-0.83,0.14-1.59,0.23-2.3c0.09-0.7,0.16-1.22,0.21-1.55c-0.36-1-0.8-1.48-1.34-1.43c-0.55,0.03-1.03,0.82-1.45,2.37
			c-0.14,0.52-0.24,1.02-0.3,1.52c-0.05,0.48-0.07,0.95-0.07,1.41c0.02,0.83,0.13,1.52,0.33,2.06c0.19,0.55,0.4,0.82,0.63,0.82
			c0.2,0,0.44-0.22,0.7-0.66s0.52-0.91,0.75-1.43c0.09-0.23,0.19-0.45,0.28-0.66C72.4,18.57,72.41,18.52,72.42,18.45z"/>
		<path class="st0" d="M83.65,11.91c0.17,0.06,0.2,0.13,0.09,0.21s-0.22,0.1-0.33,0.07c-0.67-0.22-1.23-0.05-1.66,0.49
			c-0.44,0.56-0.77,1.27-0.98,2.11c-0.13,0.45-0.21,0.92-0.26,1.41c-0.06,0.48-0.09,0.95-0.07,1.41c0,0.33,0.02,0.69,0.07,1.08
			c0.05,0.38,0.12,0.74,0.21,1.1c0.17,0.69,0.42,1.28,0.75,1.78c0.34,0.5,0.78,0.74,1.31,0.73c0.23-0.02,0.47-0.1,0.7-0.26
			s0.45-0.37,0.66-0.63c0.31-0.39,0.59-0.9,0.82-1.52c-0.45-0.14-0.9-0.42-1.34-0.84c-0.48-0.45-0.9-0.96-1.24-1.52
			c-0.53-0.88-0.85-1.77-0.96-2.67s0.14-1.54,0.75-1.9c1.03-0.59,1.89-0.55,2.58,0.12c0.69,0.66,1.11,1.95,1.27,3.87
			c0.06,0.84,0.02,1.64-0.14,2.39c0.09,0,0.19-0.01,0.28-0.02c0.28-0.06,0.55-0.16,0.8-0.3c0.48-0.25,0.91-0.6,1.27-1.05
			c0.38-0.45,0.63-0.84,0.77-1.17c0.14-0.05,0.27-0.06,0.4-0.05c0.13,0,0.25,0.02,0.38,0.07c-0.22,0.52-0.55,1.05-1.01,1.62
			c-0.44,0.55-0.95,0.97-1.55,1.27c-0.33,0.17-0.66,0.28-1.01,0.33c-0.17,0.03-0.34,0.04-0.52,0.02c-0.23,0.75-0.56,1.37-0.98,1.85
			c-0.27,0.3-0.57,0.52-0.91,0.68c-0.33,0.17-0.69,0.26-1.08,0.26h-0.02c-1.45,0-2.55-0.48-3.3-1.43c-0.73-0.95-1.1-2.29-1.1-4.01
			v-0.02c0-1.36,0.25-2.52,0.75-3.49s1.13-1.64,1.9-2.02c0.41-0.19,0.84-0.28,1.31-0.28C82.7,11.56,83.17,11.68,83.65,11.91z
			 M85.31,17.02c-0.13-1.05-0.48-1.8-1.08-2.27c-0.59-0.45-1.13-0.55-1.59-0.28c-0.25,0.13-0.27,0.51-0.05,1.15
			c0.2,0.63,0.51,1.26,0.91,1.9c0.27,0.42,0.55,0.79,0.87,1.1c0.28,0.3,0.55,0.49,0.8,0.59C85.35,18.52,85.39,17.79,85.31,17.02z"/>
		<path class="st0" d="M97.34,5.09c-0.02-0.06-0.02-0.12-0.02-0.16c0.02-0.14,0.04-0.27,0.07-0.38c0.05-0.14,0.13-0.26,0.23-0.35
			c0.2-0.19,0.47-0.28,0.8-0.28c0.13,0,0.25,0.01,0.38,0.02c0.5,0.09,0.97,0.31,1.41,0.66c0.23,0.17,0.44,0.39,0.61,0.66
			c0.19,0.25,0.31,0.53,0.38,0.84c0.2,0.7,0.38,1.62,0.54,2.74c0.17,1.11,0.33,2.27,0.47,3.49c0.08,0.63,0.15,1.25,0.21,1.88
			s0.13,1.23,0.19,1.8c0.11,1.06,0.2,1.96,0.28,2.7c0.08,0.75,0.14,1.2,0.19,1.34c0.05,0,0.12-0.13,0.21-0.38
			c0.08-0.25,0.17-0.59,0.28-1.03c0.19-0.8,0.43-1.83,0.73-3.09c0.28-1.25,0.61-2.54,0.98-3.87c0.38-1.38,0.8-2.68,1.27-3.91
			c0.47-1.22,0.98-2.16,1.55-2.84c0.11-0.09,0.25-0.08,0.42,0.05c0.08,0.06,0.12,0.13,0.12,0.21c0,0.11-0.05,0.24-0.16,0.4
			c-0.27,0.06-0.54,0.42-0.82,1.08s-0.57,1.48-0.87,2.46c-0.16,0.53-0.31,1.09-0.47,1.69c-0.16,0.61-0.31,1.23-0.47,1.85
			c-0.2,0.77-0.4,1.54-0.59,2.32s-0.37,1.53-0.54,2.25c-0.33,1.33-0.63,2.46-0.91,3.4s-0.52,1.45-0.7,1.52
			c-0.34,0.14-0.65,0.21-0.91,0.21c-0.09,0-0.18-0.01-0.26-0.02c-0.31-0.08-0.56-0.23-0.75-0.45c-0.36-0.42-0.58-0.99-0.66-1.71
			c-0.06-0.72-0.15-1.27-0.26-1.64c-0.06-0.28-0.16-0.87-0.3-1.76c-0.14-0.89-0.3-1.9-0.47-3.02c-0.09-0.59-0.2-1.21-0.3-1.85
			s-0.23-1.27-0.35-1.88c-0.22-1.16-0.45-2.2-0.7-3.12S97.6,5.39,97.34,5.09z"/>
		<path class="st0" d="M113.77,12.15c0.05,0.06,0.06,0.13,0.05,0.21c-0.02,0.06-0.06,0.11-0.14,0.14c-0.28-0.28-0.56-0.43-0.84-0.45
			s-0.56,0.06-0.84,0.23c-0.48,0.31-0.94,0.88-1.36,1.71c-0.41,0.81-0.74,1.68-1.01,2.6c-0.33,1.17-0.5,2.25-0.52,3.23
			c0,0.97,0.23,1.45,0.68,1.45c0.2,0,0.45-0.33,0.75-0.98c0.3-0.67,0.59-1.44,0.89-2.3c0.38-1.06,0.7-2.09,0.98-3.09
			s0.44-1.55,0.47-1.66c0.09-0.23,0.4-0.39,0.91-0.47c0.53-0.09,0.91-0.04,1.13,0.16c0.06,0.05,0.1,0.11,0.12,0.19
			c0.03,0.06,0.04,0.14,0.02,0.23c-0.11-0.03-0.26,0.38-0.45,1.22c-0.19,0.83-0.37,1.79-0.54,2.88c-0.14,0.86-0.27,1.73-0.38,2.6
			c-0.13,0.86-0.2,1.57-0.23,2.13c-0.02,0.3-0.02,0.53,0,0.7s0.05,0.27,0.09,0.28c0.23,0.03,0.58-0.32,1.03-1.05
			c0.47-0.75,0.93-1.57,1.38-2.46c0.38-0.73,0.72-1.43,1.03-2.09c0.3-0.64,0.51-1.08,0.63-1.31c0.11-0.03,0.23-0.04,0.35-0.02
			s0.25,0.06,0.38,0.14c-0.11,0.2-0.32,0.66-0.63,1.36c-0.3,0.7-0.66,1.45-1.08,2.25c-0.52,0.98-1.05,1.89-1.62,2.72
			c-0.55,0.78-1.02,1.17-1.43,1.17h-0.07c-0.38-0.05-0.67-0.18-0.89-0.4s-0.38-0.5-0.49-0.84c-0.09-0.28-0.16-0.59-0.19-0.94
			s-0.04-0.7-0.02-1.05c0.03-0.67,0.1-1.34,0.21-1.99c0.09-0.61,0.17-1.12,0.23-1.52c-0.05,0.17-0.12,0.42-0.21,0.75
			c-0.11,0.38-0.25,0.79-0.42,1.24c-0.27,0.67-0.55,1.31-0.87,1.92c-0.33,0.61-0.64,0.93-0.94,0.96c-0.83,0.08-1.61-0.09-2.34-0.49
			s-1.11-1.05-1.13-1.95v-0.26c0-1.09,0.17-2.14,0.52-3.14c0.38-1.06,0.84-1.98,1.38-2.74c0.3-0.41,0.6-0.76,0.91-1.05
			s0.62-0.52,0.91-0.68c0.14-0.08,0.31-0.14,0.52-0.19c0.22-0.05,0.45-0.08,0.68-0.09h0.28c0.36,0,0.72,0.05,1.08,0.14
			C113.23,11.67,113.56,11.87,113.77,12.15z"/>
		<path class="st0" d="M128.02,16.6c0.11-0.08,0.23-0.11,0.35-0.09s0.26,0.08,0.4,0.19c-0.78,1.45-1.59,2.63-2.41,3.54
			c-0.67,0.75-1.29,1.38-1.85,1.88v0.14c-0.05,1.06-0.13,2.1-0.26,3.12c-0.13,1-0.32,1.89-0.59,2.67c-0.27,0.73-0.62,1.33-1.05,1.78
			c-0.42,0.44-0.95,0.65-1.57,0.63h-0.05c-0.25,0-0.46-0.06-0.63-0.19c-0.17-0.11-0.3-0.27-0.4-0.47c-0.25-0.53-0.28-1.27-0.09-2.2
			c0.17-0.92,0.47-1.8,0.89-2.63c0.23-0.44,0.48-0.84,0.75-1.2c0.22-0.28,0.44-0.51,0.66-0.68c0.02-0.33,0.03-0.65,0.05-0.96
			c0-0.84,0.02-1.55,0.07-2.11c-0.11,0.5-0.28,0.9-0.52,1.2c-0.22,0.3-0.47,0.49-0.75,0.59c-0.52,0.2-1.06,0.13-1.64-0.23
			c-0.59-0.38-1.07-0.95-1.43-1.71c-0.17-0.41-0.3-0.85-0.4-1.34c-0.05-0.31-0.07-0.64-0.07-0.98c0-0.19,0.01-0.38,0.02-0.59
			c0.08-0.97,0.27-1.82,0.56-2.55c0.28-0.73,0.63-1.35,1.03-1.85c0.73-0.94,1.55-1.49,2.44-1.66c0.2-0.03,0.39-0.05,0.56-0.05
			c0.61,0,1.09,0.23,1.43,0.68c0.02,0.09,0,0.18-0.05,0.26s-0.13,0.09-0.26,0.05c-0.34-0.23-0.66-0.34-0.94-0.3
			c-0.28,0.02-0.54,0.13-0.77,0.33c-0.42,0.38-0.77,1-1.03,1.88c-0.25,0.88-0.41,1.79-0.49,2.74c-0.11,1.22-0.08,2.34,0.09,3.35
			c0.16,1,0.45,1.51,0.89,1.52c0.31,0.02,0.57-0.35,0.77-1.1c0.22-0.77,0.39-1.62,0.52-2.55c0.09-0.63,0.16-1.23,0.21-1.83
			c0.06-0.61,0.1-1.11,0.12-1.5c0.05-0.14,0.11-0.26,0.19-0.35c0.08-0.08,0.16-0.15,0.26-0.21c0.31-0.16,0.66-0.16,1.05,0
			c0.38,0.14,0.59,0.36,0.66,0.66c-0.08,0.02-0.13,0.14-0.16,0.38c-0.03,0.22-0.05,0.53-0.07,0.94c-0.02,0.73-0.01,1.69,0.02,2.86
			c0,0.84,0,1.71,0,2.6c0.48-0.45,1-0.99,1.55-1.62C126.82,18.73,127.47,17.73,128.02,16.6z M121.74,24.95
			c-0.23,0.59-0.42,1.21-0.56,1.85c-0.19,0.81-0.3,1.55-0.33,2.2s0.04,0.98,0.21,0.98c0.41-0.02,0.68-0.56,0.82-1.64
			c0.14-1.06,0.23-2.26,0.26-3.59c0-0.23,0-0.46,0-0.68C121.99,24.3,121.86,24.59,121.74,24.95z"/>
		<path class="st0" d="M134.98,12.15c0.05,0.06,0.06,0.13,0.05,0.21c-0.02,0.06-0.06,0.11-0.14,0.14c-0.28-0.28-0.56-0.43-0.84-0.45
			s-0.56,0.06-0.84,0.23c-0.48,0.31-0.94,0.88-1.36,1.71c-0.41,0.81-0.74,1.68-1.01,2.6c-0.33,1.17-0.5,2.25-0.52,3.23
			c0,0.97,0.23,1.45,0.68,1.45c0.2,0,0.45-0.33,0.75-0.98c0.3-0.67,0.59-1.44,0.89-2.3c0.38-1.06,0.7-2.09,0.98-3.09
			s0.44-1.55,0.47-1.66c0.09-0.23,0.4-0.39,0.91-0.47c0.53-0.09,0.91-0.04,1.13,0.16c0.06,0.05,0.1,0.11,0.12,0.19
			c0.03,0.06,0.04,0.14,0.02,0.23c-0.11-0.03-0.26,0.38-0.45,1.22c-0.19,0.83-0.37,1.79-0.54,2.88c-0.14,0.86-0.27,1.73-0.38,2.6
			c-0.13,0.86-0.2,1.57-0.23,2.13c-0.02,0.3-0.02,0.53,0,0.7s0.05,0.27,0.09,0.28c0.23,0.03,0.58-0.32,1.03-1.05
			c0.47-0.75,0.93-1.57,1.38-2.46c0.38-0.73,0.72-1.43,1.03-2.09c0.3-0.64,0.51-1.08,0.63-1.31c0.11-0.03,0.23-0.04,0.35-0.02
			s0.25,0.06,0.38,0.14c-0.11,0.2-0.32,0.66-0.63,1.36c-0.3,0.7-0.66,1.45-1.08,2.25c-0.52,0.98-1.05,1.89-1.62,2.72
			c-0.55,0.78-1.02,1.17-1.43,1.17h-0.07c-0.38-0.05-0.67-0.18-0.89-0.4s-0.38-0.5-0.49-0.84c-0.09-0.28-0.16-0.59-0.19-0.94
			s-0.04-0.7-0.02-1.05c0.03-0.67,0.1-1.34,0.21-1.99c0.09-0.61,0.17-1.12,0.23-1.52c-0.05,0.17-0.12,0.42-0.21,0.75
			c-0.11,0.38-0.25,0.79-0.42,1.24c-0.27,0.67-0.55,1.31-0.87,1.92c-0.33,0.61-0.64,0.93-0.94,0.96c-0.83,0.08-1.61-0.09-2.34-0.49
			s-1.11-1.05-1.13-1.95v-0.26c0-1.09,0.17-2.14,0.52-3.14c0.38-1.06,0.84-1.98,1.38-2.74c0.3-0.41,0.6-0.76,0.91-1.05
			s0.62-0.52,0.91-0.68c0.14-0.08,0.31-0.14,0.52-0.19c0.22-0.05,0.45-0.08,0.68-0.09h0.28c0.36,0,0.72,0.05,1.08,0.14
			C134.44,11.67,134.77,11.87,134.98,12.15z"/>
		<path class="st0" d="M141.73,13.25c-0.06,0.14-0.23,0.25-0.49,0.33c-0.28,0.08-0.47,0-0.56-0.23c0-0.38-0.04-0.68-0.12-0.91
			s-0.18-0.41-0.3-0.52c-0.28-0.27-0.6-0.25-0.96,0.05c-0.34,0.28-0.49,0.74-0.45,1.38c0.03,0.25,0.12,0.48,0.26,0.7
			s0.31,0.43,0.52,0.63c0.41,0.36,0.9,0.7,1.48,1.03c0.56,0.33,1.12,0.7,1.66,1.13c0.44,0.34,0.82,0.73,1.15,1.17
			c0.11,0.14,0.2,0.3,0.28,0.47c0.09-0.06,0.2-0.13,0.3-0.19c0.81-0.47,1.42-1.1,1.83-1.9c0.14-0.05,0.27-0.07,0.38-0.07
			s0.23,0.05,0.35,0.14c-0.14,0.34-0.33,0.66-0.56,0.94c-0.22,0.27-0.47,0.52-0.75,0.75c-0.41,0.36-0.83,0.68-1.27,0.96
			c0.05,0.16,0.09,0.32,0.12,0.49c0.09,0.55,0.09,1.07-0.02,1.57c-0.09,0.5-0.26,0.96-0.49,1.38c-0.19,0.34-0.41,0.66-0.66,0.94
			c-0.27,0.28-0.55,0.52-0.84,0.7c-0.55,0.38-1.12,0.58-1.71,0.61h-0.14c-0.55,0-1.02-0.2-1.43-0.59c-0.36-0.36-0.41-0.78-0.14-1.27
			c0.25-0.47,0.65-0.97,1.2-1.5c0.3-0.28,0.62-0.56,0.96-0.84l0.45-0.35c-0.02-0.16-0.04-0.3-0.07-0.45
			c-0.14-0.56-0.55-1.15-1.22-1.76c-0.66-0.59-1.28-1.23-1.88-1.92c-0.31-0.36-0.58-0.74-0.8-1.15c-0.22-0.39-0.34-0.8-0.38-1.24
			V13.6c0-0.27,0.05-0.51,0.14-0.73c0.11-0.28,0.27-0.52,0.49-0.73c0.38-0.39,0.84-0.64,1.41-0.75c0.16-0.05,0.31-0.07,0.47-0.07
			c0.36,0,0.7,0.1,1.01,0.3c0.2,0.16,0.38,0.37,0.54,0.63C141.61,12.52,141.7,12.84,141.73,13.25z M141,21.88
			c-0.53,0.48-0.93,0.91-1.2,1.27c-0.14,0.19-0.23,0.36-0.28,0.52c-0.05,0.14-0.02,0.25,0.07,0.33c0.2,0.19,0.48,0.11,0.84-0.23
			c0.36-0.36,0.66-0.83,0.91-1.41c0.14-0.33,0.24-0.69,0.3-1.08C141.44,21.47,141.22,21.67,141,21.88z"/>
		<path class="st0" d="M147.61,8.59c0-0.05,0-0.1,0-0.16c0-0.95,0.41-1.81,1.22-2.58c0.86-0.81,1.84-1.27,2.93-1.36
			c0.09-0.02,0.2-0.02,0.3-0.02c0.36,0,0.72,0.05,1.08,0.16c0.45,0.13,0.88,0.36,1.29,0.7c0.53,0.47,0.91,0.98,1.13,1.55
			c0.17,0.47,0.26,0.95,0.26,1.43c0,0.13-0.01,0.24-0.02,0.35c-0.09,1.13-0.52,2.2-1.29,3.21c-0.78,1.02-1.66,1.71-2.63,2.09
			c-0.28,0.09-0.5,0.24-0.66,0.45c-0.14,0.2-0.24,0.42-0.3,0.66c-0.13,0.45-0.16,0.93-0.09,1.43c0.08,0.5,0.13,0.88,0.16,1.15
			c-0.08,0.39-0.27,0.59-0.59,0.61c-0.06,0-0.13-0.01-0.19-0.02c-0.42-0.08-0.65-0.3-0.68-0.68c0.16-0.2,0.22-0.61,0.19-1.22
			c-0.02-0.59,0.05-1.2,0.19-1.83c0.08-0.33,0.2-0.63,0.35-0.91s0.39-0.52,0.7-0.7c0.39-0.23,0.8-0.59,1.24-1.05
			s0.83-0.98,1.17-1.55c0.52-0.86,0.86-1.72,1.03-2.58c0.16-0.86-0.07-1.48-0.68-1.88c-0.45-0.3-0.97-0.33-1.55-0.09
			c-0.58,0.25-1.09,0.61-1.52,1.08c-0.28,0.31-0.51,0.65-0.68,1.01c-0.16,0.38-0.22,0.73-0.19,1.05c-0.03,0.25-0.1,0.45-0.21,0.61
			s-0.23,0.27-0.38,0.33c-0.33,0.14-0.67,0.09-1.03-0.16C147.81,9.38,147.63,9.02,147.61,8.59z M151.41,21.95
			c-0.02,0.08-0.04,0.15-0.07,0.21c-0.09,0.17-0.24,0.3-0.45,0.4c-0.2,0.11-0.4,0.16-0.59,0.16c-0.05,0-0.1-0.01-0.16-0.02
			c-0.25-0.03-0.38-0.18-0.4-0.45s-0.08-0.46-0.19-0.59c0.05-0.31,0.19-0.6,0.42-0.87c0.2-0.22,0.41-0.33,0.61-0.33
			c0.05,0,0.09,0,0.12,0c0.28,0.05,0.49,0.23,0.63,0.56S151.5,21.66,151.41,21.95z"/>
	</g>
	<g>
		<path class="st1" d="M6.06,6.7c0.05-0.48,0.25-0.66,0.61-0.54c0.36,0.11,0.61,0.27,0.75,0.49c0.2,0.58,0.36,1.16,0.47,1.73
			s0.2,1.13,0.26,1.66c0.13,0.98,0.2,1.82,0.21,2.51c0.02,0.7,0.07,1.09,0.16,1.15c0.08-0.08,0.2-0.62,0.38-1.62
			c0.17-0.98,0.43-2,0.77-3.05c0.23-0.7,0.51-1.33,0.82-1.88c0.31-0.56,0.68-0.92,1.1-1.08c0.23-0.09,0.47-0.14,0.7-0.14
			c0.53,0,1.04,0.2,1.52,0.61c0.7,0.59,1.04,1.34,1.01,2.25c-0.02,0.75-0.13,1.45-0.35,2.11c-0.23,0.67-0.51,1.29-0.82,1.85
			c-0.59,1.05-1.23,1.88-1.92,2.51c-0.67,0.63-1.05,0.99-1.15,1.1c0.27-0.05,0.59-0.07,0.96-0.07c0.38,0.02,0.77,0.06,1.17,0.14
			c0.75,0.16,1.46,0.49,2.13,1.01c0.66,0.52,1.01,1.34,1.05,2.46v0.38c0,1.5-0.44,2.53-1.31,3.09c-0.97,0.59-2.25,0.63-3.84,0.09
			c-0.28-0.09-0.42-0.3-0.42-0.63c0.02-0.31,0.09-0.57,0.21-0.77h0.16c0.06,0.02,0.12,0.06,0.16,0.14c-0.06,0.47,0.22,0.73,0.84,0.8
			s1.13-0.08,1.52-0.42c0.27-0.22,0.42-0.66,0.47-1.34s-0.02-1.34-0.19-2.02c-0.11-0.45-0.27-0.87-0.49-1.24s-0.48-0.65-0.8-0.82
			c-0.52-0.28-1.11-0.38-1.78-0.3s-1.16,0.2-1.45,0.35c0.03,1.2,0.09,2.48,0.16,3.82c0.06,1.33,0.09,2.45,0.07,3.38
			c-0.09,0.22-0.32,0.33-0.68,0.33c-0.13,0-0.27-0.02-0.45-0.05c-0.63-0.09-1.11-0.31-1.45-0.66c-0.09-0.09-0.16-0.19-0.21-0.28
			c-0.06-0.11-0.1-0.22-0.12-0.33c-0.36-2.55-0.54-4.92-0.54-7.13v-0.4c0.02-2.33,0.07-4.27,0.16-5.84
			c0.06-0.84,0.11-1.55,0.14-2.13S6.11,6.95,6.06,6.7z M12.2,6.51c-0.02-0.02-0.03-0.02-0.05-0.02c-0.25,0-0.6,0.42-1.05,1.27
			c-0.47,0.92-0.91,2.09-1.31,3.52c-0.22,0.77-0.41,1.58-0.56,2.44c-0.16,0.88-0.26,1.76-0.3,2.65c0.11,0.03,0.22,0.05,0.33,0.05
			c0.13,0,0.26-0.02,0.4-0.07c0.23-0.09,0.4-0.21,0.49-0.35c0.34-0.52,0.67-1.16,0.98-1.95c0.33-0.78,0.61-1.59,0.84-2.41
			c0.34-1.23,0.56-2.38,0.66-3.42c0.02-0.2,0.02-0.39,0.02-0.56C12.65,6.95,12.5,6.57,12.2,6.51z"/>
		<path class="st1" d="M16.63,14.31c0.13-0.39,0.34-0.59,0.66-0.59h0.07c0.36,0.05,0.72,0.25,1.08,0.61
			c0.19,0.19,0.36,0.42,0.52,0.7c0.17,0.28,0.31,0.59,0.42,0.94c0.02,0.41,0,0.93-0.05,1.57s-0.09,1.3-0.14,1.99
			c-0.08,1.02-0.1,1.95-0.07,2.81c0.02,0.84,0.21,1.27,0.59,1.29c0.39,0,0.81-0.48,1.27-1.45c0.44-0.97,0.8-2.08,1.08-3.33
			c0.16-0.67,0.27-1.34,0.35-2.02c0.08-0.66,0.11-1.27,0.1-1.83c0.08-0.34,0.42-0.47,1.02-0.38c0.6,0.11,0.91,0.4,0.94,0.87
			c-0.03,0.42-0.09,1-0.19,1.73c-0.09,0.75-0.19,1.54-0.28,2.37c-0.05,0.42-0.09,0.85-0.12,1.29c-0.03,0.42-0.05,0.83-0.07,1.22
			c-0.03,0.73-0.02,1.35,0.05,1.85c0.08,0.5,0.23,0.78,0.47,0.84c0.28,0.05,0.68-0.29,1.2-1.01c0.52-0.73,1.02-1.53,1.5-2.39
			c0.31-0.58,0.6-1.12,0.87-1.62c0.27-0.52,0.45-0.91,0.56-1.17c0.13-0.03,0.25-0.04,0.38-0.02c0.13,0,0.25,0.05,0.38,0.14
			c-0.05,0.11-0.12,0.27-0.21,0.47s-0.21,0.45-0.35,0.73c-0.23,0.52-0.53,1.11-0.89,1.78c-0.34,0.67-0.72,1.3-1.13,1.88
			c-0.41,0.59-0.82,1.08-1.24,1.45c-0.34,0.31-0.67,0.47-0.98,0.47c-0.08,0-0.15-0.01-0.21-0.02c-0.38-0.09-0.69-0.27-0.92-0.54
			c-0.24-0.27-0.43-0.57-0.57-0.91c-0.27-0.66-0.4-1.36-0.4-2.11c-0.02-0.75-0.02-1.3-0.02-1.66c-0.08,0.2-0.21,0.59-0.4,1.15
			c-0.2,0.58-0.46,1.12-0.77,1.62c-0.22,0.34-0.45,0.63-0.7,0.87c-0.25,0.22-0.51,0.33-0.77,0.33c-0.56-0.02-1.02-0.15-1.38-0.4
			c-0.34-0.25-0.63-0.59-0.84-1.01c-0.22-0.44-0.38-0.94-0.47-1.5c-0.09-0.58-0.15-1.17-0.16-1.78c-0.03-1.11-0.01-2.18,0.07-3.21
			C16.9,15.31,16.84,14.64,16.63,14.31z"/>
		<path class="st1" d="M30.65,15.25c-0.06,0.14-0.23,0.25-0.49,0.33c-0.28,0.08-0.47,0-0.56-0.23c0-0.38-0.04-0.68-0.12-0.91
			s-0.18-0.41-0.3-0.52c-0.28-0.27-0.6-0.25-0.96,0.05c-0.34,0.28-0.49,0.74-0.45,1.38c0.03,0.25,0.12,0.48,0.26,0.7
			c0.14,0.22,0.31,0.43,0.52,0.63c0.41,0.36,0.9,0.7,1.48,1.03c0.56,0.33,1.12,0.7,1.66,1.13c0.44,0.34,0.82,0.73,1.15,1.17
			c0.11,0.14,0.2,0.3,0.28,0.47c0.09-0.06,0.2-0.13,0.3-0.19c0.81-0.47,1.42-1.1,1.83-1.9c0.14-0.05,0.27-0.07,0.38-0.07
			s0.23,0.05,0.35,0.14c-0.14,0.34-0.33,0.66-0.56,0.94c-0.22,0.27-0.47,0.52-0.75,0.75c-0.41,0.36-0.83,0.68-1.27,0.96
			c0.05,0.16,0.09,0.32,0.12,0.49c0.09,0.55,0.09,1.07-0.02,1.57c-0.09,0.5-0.26,0.96-0.49,1.38c-0.19,0.34-0.41,0.66-0.66,0.94
			c-0.27,0.28-0.55,0.52-0.84,0.7c-0.55,0.38-1.12,0.58-1.71,0.61h-0.14c-0.55,0-1.02-0.2-1.43-0.59c-0.36-0.36-0.41-0.78-0.14-1.27
			c0.25-0.47,0.65-0.97,1.2-1.5c0.3-0.28,0.62-0.56,0.96-0.84l0.45-0.35c-0.02-0.16-0.04-0.3-0.07-0.45
			c-0.14-0.56-0.55-1.15-1.22-1.76c-0.66-0.59-1.28-1.23-1.88-1.92c-0.31-0.36-0.58-0.74-0.8-1.15c-0.22-0.39-0.34-0.8-0.38-1.24
			V15.6c0-0.27,0.05-0.51,0.14-0.73c0.11-0.28,0.27-0.52,0.49-0.73c0.38-0.39,0.84-0.64,1.41-0.75c0.16-0.05,0.31-0.07,0.47-0.07
			c0.36,0,0.7,0.1,1.01,0.3c0.2,0.16,0.38,0.37,0.54,0.63C30.53,14.52,30.62,14.84,30.65,15.25z M29.92,23.88
			c-0.53,0.48-0.93,0.91-1.2,1.27c-0.14,0.19-0.23,0.36-0.28,0.52c-0.05,0.14-0.02,0.25,0.07,0.33c0.2,0.19,0.48,0.11,0.84-0.23
			c0.36-0.36,0.66-0.83,0.91-1.41c0.14-0.33,0.24-0.69,0.3-1.08C30.36,23.47,30.14,23.67,29.92,23.88z"/>
		<path class="st1" d="M39.72,16.09c0.06-0.33,0.08-0.69,0.05-1.08c-0.05-0.41-0.2-0.63-0.45-0.66c-0.3-0.03-0.59,0.37-0.89,1.2
			c-0.3,0.83-0.52,1.8-0.68,2.93c-0.13,0.88-0.18,1.77-0.16,2.67s0.13,1.66,0.35,2.27c0.11,0.34,0.26,0.63,0.45,0.84
			s0.41,0.36,0.68,0.42c0.53,0.13,1.14-0.19,1.83-0.94c0.67-0.73,1.3-1.57,1.9-2.51c0.33-0.52,0.62-1.02,0.87-1.5
			c0.27-0.5,0.49-0.94,0.68-1.31c0.13-0.08,0.25-0.12,0.38-0.12c0.13,0.02,0.24,0.08,0.35,0.19c-0.19,0.42-0.41,0.91-0.68,1.45
			c-0.28,0.53-0.59,1.08-0.94,1.64c-0.63,1.02-1.34,1.92-2.16,2.72c-0.67,0.66-1.38,0.98-2.11,0.98c-0.14,0-0.28-0.01-0.42-0.02
			c-0.75-0.13-1.4-0.4-1.95-0.82c-0.55-0.44-0.99-0.96-1.34-1.57c-0.58-1.06-0.87-2.3-0.87-3.73v-0.28
			c0.03-1.53,0.37-2.91,1.01-4.15c0.23-0.44,0.5-0.79,0.8-1.05c0.31-0.27,0.63-0.45,0.96-0.56c0.28-0.11,0.56-0.16,0.84-0.16
			c0.47,0,0.92,0.15,1.36,0.45c0.69,0.45,1.04,1.15,1.05,2.09c0,0.17-0.01,0.34-0.02,0.49c-0.02,0.16-0.04,0.31-0.07,0.47
			c-0.13,0.13-0.29,0.14-0.49,0.05C39.85,16.38,39.74,16.25,39.72,16.09z"/>
		<path class="st1" d="M51.02,14.15c0.05,0.06,0.06,0.13,0.05,0.21c-0.02,0.06-0.06,0.11-0.14,0.14c-0.28-0.28-0.56-0.43-0.84-0.45
			s-0.56,0.06-0.84,0.23c-0.48,0.31-0.94,0.88-1.36,1.71c-0.41,0.81-0.74,1.68-1.01,2.6c-0.33,1.17-0.5,2.25-0.52,3.23
			c0,0.97,0.23,1.45,0.68,1.45c0.2,0,0.45-0.33,0.75-0.98c0.3-0.67,0.59-1.44,0.89-2.3c0.38-1.06,0.7-2.09,0.98-3.09
			s0.44-1.55,0.47-1.66c0.09-0.23,0.4-0.39,0.91-0.47c0.53-0.09,0.91-0.04,1.13,0.16c0.06,0.05,0.1,0.11,0.12,0.19
			c0.03,0.06,0.04,0.14,0.02,0.23c-0.11-0.03-0.26,0.38-0.45,1.22c-0.19,0.83-0.37,1.79-0.54,2.88c-0.14,0.86-0.27,1.73-0.38,2.6
			c-0.13,0.86-0.2,1.57-0.23,2.13c-0.02,0.3-0.02,0.53,0,0.7s0.05,0.27,0.09,0.28c0.23,0.03,0.58-0.32,1.03-1.05
			c0.47-0.75,0.93-1.57,1.38-2.46c0.38-0.73,0.72-1.43,1.03-2.09c0.3-0.64,0.51-1.08,0.63-1.31c0.11-0.03,0.23-0.04,0.35-0.02
			s0.25,0.06,0.38,0.14c-0.11,0.2-0.32,0.66-0.63,1.36c-0.3,0.7-0.66,1.45-1.08,2.25c-0.52,0.98-1.05,1.89-1.62,2.72
			c-0.55,0.78-1.02,1.17-1.43,1.17h-0.07c-0.38-0.05-0.67-0.18-0.89-0.4s-0.38-0.5-0.49-0.84c-0.09-0.28-0.16-0.59-0.19-0.94
			s-0.04-0.7-0.02-1.05c0.03-0.67,0.1-1.34,0.21-1.99c0.09-0.61,0.17-1.12,0.23-1.52c-0.05,0.17-0.12,0.42-0.21,0.75
			c-0.11,0.38-0.25,0.79-0.42,1.24c-0.27,0.67-0.55,1.31-0.87,1.92c-0.33,0.61-0.64,0.93-0.94,0.96c-0.83,0.08-1.61-0.09-2.34-0.49
			s-1.11-1.05-1.13-1.95v-0.26c0-1.09,0.17-2.14,0.52-3.14c0.38-1.06,0.84-1.98,1.38-2.74c0.3-0.41,0.6-0.76,0.91-1.05
			s0.62-0.52,0.91-0.68c0.14-0.08,0.31-0.14,0.52-0.19c0.22-0.05,0.45-0.08,0.68-0.09h0.28c0.36,0,0.72,0.05,1.08,0.14
			C50.48,13.67,50.81,13.87,51.02,14.15z"/>
		<path class="st1" d="M56.36,12.98c0.17,0.02,0.31,0.09,0.42,0.23s0.2,0.32,0.26,0.54c0.13,0.42,0.2,0.95,0.21,1.57
			c0.02,0.61,0.04,1.22,0.07,1.83c0.09-0.36,0.3-0.84,0.61-1.45c0.31-0.59,0.69-1.11,1.13-1.55c0.23-0.23,0.48-0.42,0.75-0.56
			c0.25-0.14,0.51-0.2,0.77-0.19c0.66,0.05,1.06,0.57,1.22,1.57c0.16,0.98,0.2,2.11,0.14,3.38c-0.03,0.55-0.07,1.09-0.12,1.64
			s-0.09,1.08-0.14,1.59c-0.11,0.94-0.19,1.73-0.23,2.39s-0.01,1,0.12,1.03c0.31,0.09,0.72-0.21,1.22-0.91s0.99-1.48,1.48-2.34
			c0.31-0.58,0.6-1.13,0.87-1.66c0.28-0.53,0.49-0.95,0.63-1.27c0.13-0.06,0.25-0.09,0.38-0.09c0.13-0.02,0.26,0.04,0.4,0.16
			c-0.16,0.33-0.37,0.78-0.63,1.36c-0.28,0.59-0.59,1.21-0.94,1.85c-0.53,0.95-1.12,1.82-1.76,2.6c-0.53,0.66-1.05,0.98-1.55,0.98
			c-0.08,0-0.16-0.01-0.26-0.02c-0.36-0.09-0.65-0.27-0.87-0.54c-0.23-0.27-0.42-0.6-0.56-1.01c-0.22-0.64-0.33-1.4-0.33-2.27
			c-0.02-0.88,0.02-1.77,0.09-2.67c0.13-1.33,0.27-2.52,0.42-3.59c0.17-1.06,0.18-1.6,0.02-1.62c-0.27-0.02-0.58,0.2-0.94,0.66
			c-0.38,0.45-0.72,0.98-1.03,1.57c-0.17,0.31-0.33,0.63-0.47,0.94c-0.14,0.33-0.26,0.63-0.35,0.91c-0.02,0.3-0.02,0.62-0.02,0.96
			c-0.02,0.34-0.03,0.68-0.05,1.01c-0.03,0.63-0.07,1.19-0.12,1.69c-0.05,0.52-0.1,0.84-0.16,0.98c-0.41,0.42-0.84,0.71-1.31,0.87
			s-0.88-0.12-1.22-0.82c-0.03-0.34-0.05-0.7-0.05-1.05c0-0.33,0.02-0.66,0.05-0.98c0.05-0.7,0.12-1.39,0.21-2.06
			c0.17-1.23,0.33-2.33,0.47-3.28c0.14-0.97,0.07-1.56-0.21-1.78c0.16-0.25,0.36-0.42,0.61-0.52c0.19-0.06,0.38-0.09,0.56-0.09
			C56.23,12.95,56.3,12.96,56.36,12.98z"/>
		<path class="st1" d="M74.34,7.31c0.03,0.16,0.04,0.45,0.02,0.87c-0.03,0.42-0.08,0.92-0.14,1.5c-0.13,1.09-0.31,2.41-0.56,3.94
			c-0.25,1.52-0.5,3.02-0.75,4.52c-0.13,0.66-0.23,1.3-0.33,1.92c-0.11,0.61-0.2,1.19-0.28,1.73c-0.16,1-0.27,1.82-0.35,2.46
			c-0.06,0.64-0.05,0.97,0.02,0.98c0.41,0.13,0.92-0.22,1.55-1.03s1.22-1.7,1.78-2.67c0.38-0.64,0.7-1.23,0.98-1.78
			c0.3-0.56,0.51-0.97,0.63-1.22c0.11-0.08,0.23-0.11,0.35-0.09c0.14,0.02,0.27,0.07,0.4,0.16c-0.11,0.23-0.31,0.65-0.61,1.24
			c-0.28,0.59-0.62,1.24-1.01,1.95c-0.22,0.38-0.45,0.75-0.68,1.13s-0.48,0.73-0.73,1.08c-0.47,0.64-0.95,1.16-1.45,1.57
			c-0.39,0.31-0.77,0.47-1.13,0.47c-0.11,0-0.21-0.02-0.3-0.05c-0.25-0.06-0.46-0.19-0.63-0.38c-0.16-0.2-0.29-0.45-0.4-0.75
			c-0.2-0.55-0.32-1.22-0.35-2.02l-0.02-0.8c-0.22,0.47-0.46,0.89-0.73,1.27c-0.36,0.52-0.72,0.78-1.08,0.8
			c-0.98,0.08-1.79-0.2-2.41-0.82c-0.63-0.61-1.02-1.44-1.17-2.48c-0.05-0.31-0.07-0.63-0.07-0.96c0-0.28,0.02-0.57,0.05-0.87
			c0.06-0.66,0.21-1.35,0.45-2.09c0.2-0.63,0.48-1.14,0.82-1.55c0.36-0.41,0.74-0.71,1.15-0.91c0.77-0.36,1.52-0.4,2.27-0.12
			c0.75,0.3,1.21,0.84,1.38,1.62c0.05-0.3,0.13-0.78,0.23-1.45c0.13-0.67,0.24-1.4,0.35-2.18c0.06-0.41,0.13-0.82,0.19-1.24
			s0.11-0.82,0.14-1.2c0.08-0.72,0.11-1.34,0.09-1.85s-0.11-0.82-0.28-0.91c0.09-0.44,0.35-0.74,0.77-0.91
			c0.17-0.06,0.34-0.1,0.52-0.12c0.22,0,0.44,0.06,0.66,0.19c0.14,0.09,0.27,0.23,0.4,0.4S74.29,7.04,74.34,7.31z M70.42,20.45
			c0.06-0.83,0.14-1.59,0.23-2.3s0.16-1.22,0.21-1.55c-0.36-1-0.8-1.48-1.34-1.43c-0.55,0.03-1.03,0.82-1.45,2.37
			c-0.14,0.52-0.24,1.02-0.3,1.52c-0.05,0.48-0.07,0.95-0.07,1.41c0.02,0.83,0.13,1.52,0.33,2.06c0.19,0.55,0.4,0.82,0.63,0.82
			c0.2,0,0.44-0.22,0.7-0.66s0.52-0.91,0.75-1.43c0.09-0.23,0.19-0.45,0.28-0.66C70.4,20.57,70.41,20.52,70.42,20.45z"/>
		<path class="st1" d="M81.65,13.91c0.17,0.06,0.2,0.13,0.09,0.21s-0.22,0.1-0.33,0.07c-0.67-0.22-1.23-0.05-1.66,0.49
			c-0.44,0.56-0.77,1.27-0.98,2.11c-0.13,0.45-0.21,0.92-0.26,1.41c-0.06,0.48-0.09,0.95-0.07,1.41c0,0.33,0.02,0.69,0.07,1.08
			c0.05,0.38,0.12,0.74,0.21,1.1c0.17,0.69,0.42,1.28,0.75,1.78c0.34,0.5,0.78,0.74,1.31,0.73c0.23-0.02,0.47-0.1,0.7-0.26
			s0.45-0.37,0.66-0.63c0.31-0.39,0.59-0.9,0.82-1.52c-0.45-0.14-0.9-0.42-1.34-0.84c-0.48-0.45-0.9-0.96-1.24-1.52
			c-0.53-0.88-0.85-1.77-0.96-2.67c-0.11-0.91,0.14-1.54,0.75-1.9c1.03-0.59,1.89-0.55,2.58,0.12c0.69,0.66,1.11,1.95,1.27,3.87
			c0.06,0.84,0.02,1.64-0.14,2.39c0.09,0,0.19-0.01,0.28-0.02c0.28-0.06,0.55-0.16,0.8-0.3c0.48-0.25,0.91-0.6,1.27-1.05
			c0.38-0.45,0.63-0.84,0.77-1.17c0.14-0.05,0.27-0.06,0.4-0.05c0.13,0,0.25,0.02,0.38,0.07c-0.22,0.52-0.55,1.05-1.01,1.62
			c-0.44,0.55-0.95,0.97-1.55,1.27c-0.33,0.17-0.66,0.28-1.01,0.33c-0.17,0.03-0.34,0.04-0.52,0.02c-0.23,0.75-0.56,1.37-0.98,1.85
			c-0.27,0.3-0.57,0.52-0.91,0.68c-0.33,0.17-0.69,0.26-1.08,0.26h-0.02c-1.45,0-2.55-0.48-3.3-1.43c-0.73-0.95-1.1-2.29-1.1-4.01
			v-0.02c0-1.36,0.25-2.52,0.75-3.49s1.13-1.64,1.9-2.02c0.41-0.19,0.84-0.28,1.31-0.28C80.7,13.56,81.17,13.68,81.65,13.91z
			 M83.31,19.02c-0.13-1.05-0.48-1.8-1.08-2.27c-0.59-0.45-1.13-0.55-1.59-0.28c-0.25,0.13-0.27,0.51-0.05,1.15
			c0.2,0.63,0.51,1.26,0.91,1.9c0.27,0.42,0.55,0.79,0.87,1.1c0.28,0.3,0.55,0.49,0.8,0.59C83.35,20.52,83.39,19.79,83.31,19.02z"/>
		<path class="st1" d="M95.34,7.09c-0.02-0.06-0.02-0.12-0.02-0.16c0.02-0.14,0.04-0.27,0.07-0.38c0.05-0.14,0.13-0.26,0.23-0.35
			c0.2-0.19,0.47-0.28,0.8-0.28c0.13,0,0.25,0.01,0.38,0.02c0.5,0.09,0.97,0.31,1.41,0.66c0.23,0.17,0.44,0.39,0.61,0.66
			c0.19,0.25,0.31,0.53,0.38,0.84c0.2,0.7,0.38,1.62,0.54,2.74c0.17,1.11,0.33,2.27,0.47,3.49c0.08,0.63,0.15,1.25,0.21,1.88
			c0.06,0.63,0.13,1.23,0.19,1.8c0.11,1.06,0.2,1.96,0.28,2.7c0.08,0.75,0.14,1.2,0.19,1.34c0.05,0,0.12-0.13,0.21-0.38
			c0.08-0.25,0.17-0.59,0.28-1.03c0.19-0.8,0.43-1.83,0.73-3.09c0.28-1.25,0.61-2.54,0.98-3.87c0.38-1.38,0.8-2.68,1.27-3.91
			c0.47-1.22,0.98-2.16,1.55-2.84c0.11-0.09,0.25-0.08,0.42,0.05c0.08,0.06,0.12,0.13,0.12,0.21c0,0.11-0.05,0.24-0.16,0.4
			c-0.27,0.06-0.54,0.42-0.82,1.08s-0.57,1.48-0.87,2.46c-0.16,0.53-0.31,1.09-0.47,1.69c-0.16,0.61-0.31,1.23-0.47,1.85
			c-0.2,0.77-0.4,1.54-0.59,2.32s-0.37,1.53-0.54,2.25c-0.33,1.33-0.63,2.46-0.91,3.4s-0.52,1.45-0.7,1.52
			c-0.34,0.14-0.65,0.21-0.91,0.21c-0.09,0-0.18-0.01-0.26-0.02c-0.31-0.08-0.56-0.23-0.75-0.45c-0.36-0.42-0.58-0.99-0.66-1.71
			c-0.06-0.72-0.15-1.27-0.26-1.64c-0.06-0.28-0.16-0.87-0.3-1.76s-0.3-1.9-0.47-3.02c-0.09-0.59-0.2-1.21-0.3-1.85
			s-0.23-1.27-0.35-1.88c-0.22-1.16-0.45-2.2-0.7-3.12S95.6,7.39,95.34,7.09z"/>
		<path class="st1" d="M111.77,14.15c0.05,0.06,0.06,0.13,0.05,0.21c-0.02,0.06-0.06,0.11-0.14,0.14c-0.28-0.28-0.56-0.43-0.84-0.45
			s-0.56,0.06-0.84,0.23c-0.48,0.31-0.94,0.88-1.36,1.71c-0.41,0.81-0.74,1.68-1.01,2.6c-0.33,1.17-0.5,2.25-0.52,3.23
			c0,0.97,0.23,1.45,0.68,1.45c0.2,0,0.45-0.33,0.75-0.98c0.3-0.67,0.59-1.44,0.89-2.3c0.38-1.06,0.7-2.09,0.98-3.09
			s0.44-1.55,0.47-1.66c0.09-0.23,0.4-0.39,0.91-0.47c0.53-0.09,0.91-0.04,1.13,0.16c0.06,0.05,0.1,0.11,0.12,0.19
			c0.03,0.06,0.04,0.14,0.02,0.23c-0.11-0.03-0.26,0.38-0.45,1.22c-0.19,0.83-0.37,1.79-0.54,2.88c-0.14,0.86-0.27,1.73-0.38,2.6
			c-0.13,0.86-0.2,1.57-0.23,2.13c-0.02,0.3-0.02,0.53,0,0.7s0.05,0.27,0.09,0.28c0.23,0.03,0.58-0.32,1.03-1.05
			c0.47-0.75,0.93-1.57,1.38-2.46c0.38-0.73,0.72-1.43,1.03-2.09c0.3-0.64,0.51-1.08,0.63-1.31c0.11-0.03,0.23-0.04,0.35-0.02
			s0.25,0.06,0.38,0.14c-0.11,0.2-0.32,0.66-0.63,1.36c-0.3,0.7-0.66,1.45-1.08,2.25c-0.52,0.98-1.05,1.89-1.62,2.72
			c-0.55,0.78-1.02,1.17-1.43,1.17h-0.07c-0.38-0.05-0.67-0.18-0.89-0.4s-0.38-0.5-0.49-0.84c-0.09-0.28-0.16-0.59-0.19-0.94
			s-0.04-0.7-0.02-1.05c0.03-0.67,0.1-1.34,0.21-1.99c0.09-0.61,0.17-1.12,0.23-1.52c-0.05,0.17-0.12,0.42-0.21,0.75
			c-0.11,0.38-0.25,0.79-0.42,1.24c-0.27,0.67-0.55,1.31-0.87,1.92c-0.33,0.61-0.64,0.93-0.94,0.96c-0.83,0.08-1.61-0.09-2.34-0.49
			s-1.11-1.05-1.13-1.95v-0.26c0-1.09,0.17-2.14,0.52-3.14c0.38-1.06,0.84-1.98,1.38-2.74c0.3-0.41,0.6-0.76,0.91-1.05
			s0.62-0.52,0.91-0.68c0.14-0.08,0.31-0.14,0.52-0.19c0.22-0.05,0.45-0.08,0.68-0.09h0.28c0.36,0,0.72,0.05,1.08,0.14
			C111.23,13.67,111.56,13.87,111.77,14.15z"/>
		<path class="st1" d="M126.02,18.6c0.11-0.08,0.23-0.11,0.35-0.09s0.26,0.08,0.4,0.19c-0.78,1.45-1.59,2.63-2.41,3.54
			c-0.67,0.75-1.29,1.38-1.85,1.88v0.14c-0.05,1.06-0.13,2.1-0.26,3.12c-0.13,1-0.32,1.89-0.59,2.67c-0.27,0.73-0.62,1.33-1.05,1.78
			c-0.42,0.44-0.95,0.65-1.57,0.63h-0.05c-0.25,0-0.46-0.06-0.63-0.19c-0.17-0.11-0.3-0.27-0.4-0.47c-0.25-0.53-0.28-1.27-0.09-2.2
			c0.17-0.92,0.47-1.8,0.89-2.63c0.23-0.44,0.48-0.84,0.75-1.2c0.22-0.28,0.44-0.51,0.66-0.68c0.02-0.33,0.03-0.65,0.05-0.96
			c0-0.84,0.02-1.55,0.07-2.11c-0.11,0.5-0.28,0.9-0.52,1.2c-0.22,0.3-0.47,0.49-0.75,0.59c-0.52,0.2-1.06,0.13-1.64-0.23
			c-0.59-0.38-1.07-0.95-1.43-1.71c-0.17-0.41-0.3-0.85-0.4-1.34c-0.05-0.31-0.07-0.64-0.07-0.98c0-0.19,0.01-0.38,0.02-0.59
			c0.08-0.97,0.27-1.82,0.56-2.55c0.28-0.73,0.63-1.35,1.03-1.85c0.73-0.94,1.55-1.49,2.44-1.66c0.2-0.03,0.39-0.05,0.56-0.05
			c0.61,0,1.09,0.23,1.43,0.68c0.02,0.09,0,0.18-0.05,0.26s-0.13,0.09-0.26,0.05c-0.34-0.23-0.66-0.34-0.94-0.3
			c-0.28,0.02-0.54,0.13-0.77,0.33c-0.42,0.38-0.77,1-1.03,1.88c-0.25,0.88-0.41,1.79-0.49,2.74c-0.11,1.22-0.08,2.34,0.09,3.35
			c0.16,1,0.45,1.51,0.89,1.52c0.31,0.02,0.57-0.35,0.77-1.1c0.22-0.77,0.39-1.62,0.52-2.55c0.09-0.63,0.16-1.23,0.21-1.83
			c0.06-0.61,0.1-1.11,0.12-1.5c0.05-0.14,0.11-0.26,0.19-0.35c0.08-0.08,0.16-0.15,0.26-0.21c0.31-0.16,0.66-0.16,1.05,0
			c0.38,0.14,0.59,0.36,0.66,0.66c-0.08,0.02-0.13,0.14-0.16,0.38c-0.03,0.22-0.05,0.53-0.07,0.94c-0.02,0.73-0.01,1.69,0.02,2.86
			c0,0.84,0,1.71,0,2.6c0.48-0.45,1-0.99,1.55-1.62C124.82,20.73,125.47,19.73,126.02,18.6z M119.74,26.95
			c-0.23,0.59-0.42,1.21-0.56,1.85c-0.19,0.81-0.3,1.55-0.33,2.2s0.04,0.98,0.21,0.98c0.41-0.02,0.68-0.56,0.82-1.64
			c0.14-1.06,0.23-2.26,0.26-3.59c0-0.23,0-0.46,0-0.68C119.99,26.3,119.86,26.59,119.74,26.95z"/>
		<path class="st1" d="M132.98,14.15c0.05,0.06,0.06,0.13,0.05,0.21c-0.02,0.06-0.06,0.11-0.14,0.14c-0.28-0.28-0.56-0.43-0.84-0.45
			s-0.56,0.06-0.84,0.23c-0.48,0.31-0.94,0.88-1.36,1.71c-0.41,0.81-0.74,1.68-1.01,2.6c-0.33,1.17-0.5,2.25-0.52,3.23
			c0,0.97,0.23,1.45,0.68,1.45c0.2,0,0.45-0.33,0.75-0.98c0.3-0.67,0.59-1.44,0.89-2.3c0.38-1.06,0.7-2.09,0.98-3.09
			s0.44-1.55,0.47-1.66c0.09-0.23,0.4-0.39,0.91-0.47c0.53-0.09,0.91-0.04,1.13,0.16c0.06,0.05,0.1,0.11,0.12,0.19
			c0.03,0.06,0.04,0.14,0.02,0.23c-0.11-0.03-0.26,0.38-0.45,1.22c-0.19,0.83-0.37,1.79-0.54,2.88c-0.14,0.86-0.27,1.73-0.38,2.6
			c-0.13,0.86-0.2,1.57-0.23,2.13c-0.02,0.3-0.02,0.53,0,0.7s0.05,0.27,0.09,0.28c0.23,0.03,0.58-0.32,1.03-1.05
			c0.47-0.75,0.93-1.57,1.38-2.46c0.38-0.73,0.72-1.43,1.03-2.09c0.3-0.64,0.51-1.08,0.63-1.31c0.11-0.03,0.23-0.04,0.35-0.02
			s0.25,0.06,0.38,0.14c-0.11,0.2-0.32,0.66-0.63,1.36c-0.3,0.7-0.66,1.45-1.08,2.25c-0.52,0.98-1.05,1.89-1.62,2.72
			c-0.55,0.78-1.02,1.17-1.43,1.17h-0.07c-0.38-0.05-0.67-0.18-0.89-0.4s-0.38-0.5-0.49-0.84c-0.09-0.28-0.16-0.59-0.19-0.94
			s-0.04-0.7-0.02-1.05c0.03-0.67,0.1-1.34,0.21-1.99c0.09-0.61,0.17-1.12,0.23-1.52c-0.05,0.17-0.12,0.42-0.21,0.75
			c-0.11,0.38-0.25,0.79-0.42,1.24c-0.27,0.67-0.55,1.31-0.87,1.92c-0.33,0.61-0.64,0.93-0.94,0.96c-0.83,0.08-1.61-0.09-2.34-0.49
			s-1.11-1.05-1.13-1.95v-0.26c0-1.09,0.17-2.14,0.52-3.14c0.38-1.06,0.84-1.98,1.38-2.74c0.3-0.41,0.6-0.76,0.91-1.05
			s0.62-0.52,0.91-0.68c0.14-0.08,0.31-0.14,0.52-0.19c0.22-0.05,0.45-0.08,0.68-0.09h0.28c0.36,0,0.72,0.05,1.08,0.14
			C132.44,13.67,132.77,13.87,132.98,14.15z"/>
		<path class="st1" d="M139.73,15.25c-0.06,0.14-0.23,0.25-0.49,0.33c-0.28,0.08-0.47,0-0.56-0.23c0-0.38-0.04-0.68-0.12-0.91
			s-0.18-0.41-0.3-0.52c-0.28-0.27-0.6-0.25-0.96,0.05c-0.34,0.28-0.49,0.74-0.45,1.38c0.03,0.25,0.12,0.48,0.26,0.7
			c0.14,0.22,0.31,0.43,0.52,0.63c0.41,0.36,0.9,0.7,1.48,1.03c0.56,0.33,1.12,0.7,1.66,1.13c0.44,0.34,0.82,0.73,1.15,1.17
			c0.11,0.14,0.2,0.3,0.28,0.47c0.09-0.06,0.2-0.13,0.3-0.19c0.81-0.47,1.42-1.1,1.83-1.9c0.14-0.05,0.27-0.07,0.38-0.07
			s0.23,0.05,0.35,0.14c-0.14,0.34-0.33,0.66-0.56,0.94c-0.22,0.27-0.47,0.52-0.75,0.75c-0.41,0.36-0.83,0.68-1.27,0.96
			c0.05,0.16,0.09,0.32,0.12,0.49c0.09,0.55,0.09,1.07-0.02,1.57c-0.09,0.5-0.26,0.96-0.49,1.38c-0.19,0.34-0.41,0.66-0.66,0.94
			c-0.27,0.28-0.55,0.52-0.84,0.7c-0.55,0.38-1.12,0.58-1.71,0.61h-0.14c-0.55,0-1.02-0.2-1.43-0.59c-0.36-0.36-0.41-0.78-0.14-1.27
			c0.25-0.47,0.65-0.97,1.2-1.5c0.3-0.28,0.62-0.56,0.96-0.84l0.45-0.35c-0.02-0.16-0.04-0.3-0.07-0.45
			c-0.14-0.56-0.55-1.15-1.22-1.76c-0.66-0.59-1.28-1.23-1.88-1.92c-0.31-0.36-0.58-0.74-0.8-1.15c-0.22-0.39-0.34-0.8-0.38-1.24
			V15.6c0-0.27,0.05-0.51,0.14-0.73c0.11-0.28,0.27-0.52,0.49-0.73c0.38-0.39,0.84-0.64,1.41-0.75c0.16-0.05,0.31-0.07,0.47-0.07
			c0.36,0,0.7,0.1,1.01,0.3c0.2,0.16,0.38,0.37,0.54,0.63C139.61,14.52,139.7,14.84,139.73,15.25z M139,23.88
			c-0.53,0.48-0.93,0.91-1.2,1.27c-0.14,0.19-0.23,0.36-0.28,0.52c-0.05,0.14-0.02,0.25,0.07,0.33c0.2,0.19,0.48,0.11,0.84-0.23
			c0.36-0.36,0.66-0.83,0.91-1.41c0.14-0.33,0.24-0.69,0.3-1.08C139.44,23.47,139.22,23.67,139,23.88z"/>
		<path class="st1" d="M145.61,10.59c0-0.05,0-0.1,0-0.16c0-0.95,0.41-1.81,1.22-2.58c0.86-0.81,1.84-1.27,2.93-1.36
			c0.09-0.02,0.2-0.02,0.3-0.02c0.36,0,0.72,0.05,1.08,0.16c0.45,0.13,0.88,0.36,1.29,0.7c0.53,0.47,0.91,0.98,1.13,1.55
			c0.17,0.47,0.26,0.95,0.26,1.43c0,0.13-0.01,0.24-0.02,0.35c-0.09,1.13-0.52,2.2-1.29,3.21c-0.78,1.02-1.66,1.71-2.63,2.09
			c-0.28,0.09-0.5,0.24-0.66,0.45c-0.14,0.2-0.24,0.42-0.3,0.66c-0.13,0.45-0.16,0.93-0.09,1.43c0.08,0.5,0.13,0.88,0.16,1.15
			c-0.08,0.39-0.27,0.59-0.59,0.61c-0.06,0-0.13-0.01-0.19-0.02c-0.42-0.08-0.65-0.3-0.68-0.68c0.16-0.2,0.22-0.61,0.19-1.22
			c-0.02-0.59,0.05-1.2,0.19-1.83c0.08-0.33,0.2-0.63,0.35-0.91s0.39-0.52,0.7-0.7c0.39-0.23,0.8-0.59,1.24-1.05
			s0.83-0.98,1.17-1.55c0.52-0.86,0.86-1.72,1.03-2.58c0.16-0.86-0.07-1.48-0.68-1.88c-0.45-0.3-0.97-0.33-1.55-0.09
			c-0.58,0.25-1.09,0.61-1.52,1.08c-0.28,0.31-0.51,0.65-0.68,1.01c-0.16,0.38-0.22,0.73-0.19,1.05c-0.03,0.25-0.1,0.45-0.21,0.61
			s-0.23,0.27-0.38,0.33c-0.33,0.14-0.67,0.09-1.03-0.16C145.81,11.38,145.63,11.02,145.61,10.59z M149.41,23.95
			c-0.02,0.08-0.04,0.15-0.07,0.21c-0.09,0.17-0.24,0.3-0.45,0.4c-0.2,0.11-0.4,0.16-0.59,0.16c-0.05,0-0.1-0.01-0.16-0.02
			c-0.25-0.03-0.38-0.18-0.4-0.45s-0.08-0.46-0.19-0.59c0.05-0.31,0.19-0.6,0.42-0.87c0.2-0.22,0.41-0.33,0.61-0.33
			c0.05,0,0.09,0,0.12,0c0.28,0.05,0.49,0.23,0.63,0.56S149.5,23.66,149.41,23.95z"/>
	</g>
</g>
</svg>
