<svg id="Layer_1" data-name="Layer 1" xmlns="http://www.w3.org/2000/svg" viewBox="0 0 24.61 25.08"><defs><style>.cls-1{opacity:0.84;}.cls-2{fill:#395398;fill-rule:evenodd;}.cls-3{fill:#fff;}</style></defs><g class="cls-1"><path class="cls-2" d="M15,26.42c.12-.06.58-.08.73-.16C15,26.32,15,26.29,15,26.42Z" transform="translate(-1.48 -1.64)"/><path class="cls-2" d="M1.76,13.42a3.28,3.28,0,0,0,0,1.09C1.72,14.19,1.82,13.71,1.76,13.42Z" transform="translate(-1.48 -1.64)"/><path class="cls-2" d="M13.61,26.41a.23.23,0,0,0,.13,0l.19,0-.15,0C13.69,26.39,13.61,26.39,13.61,26.41Z" transform="translate(-1.48 -1.64)"/><path class="cls-2" d="M14.35,26.41l-.07,0,.15,0s.07,0,0,0Z" transform="translate(-1.48 -1.64)"/><path class="cls-2" d="M15.54,1.85l1.3.29.5.15a7.15,7.15,0,0,1,1,.38l0,0,.5.22c.16,0,.34.18.49.24s.56.29.79.44a1.31,1.31,0,0,0,.32.19l.63.43c.09,0,.22.16.29.19a1,1,0,0,0,.16.1,1.53,1.53,0,0,0-.4-.35L20.4,3.6a2.16,2.16,0,0,0-.65-.37L19.26,3a5.76,5.76,0,0,0-.85-.37l-.31-.14a1.9,1.9,0,0,0-.54-.18l-.2-.07-.17,0-.15,0a9,9,0,0,0-1.49-.37c-.14,0-.21,0-.22,0S15.41,1.83,15.54,1.85Zm4.68,1.72h0a.59.59,0,0,1,.16.1l-.16-.1Z" transform="translate(-1.48 -1.64)"/><path class="cls-2" d="M24.34,21.43h0v0Z" transform="translate(-1.48 -1.64)"/><path class="cls-2" d="M26,16.21s0,0,0,0a4.06,4.06,0,0,0,.08-1l0,.08a1.47,1.47,0,0,0,0-.21V15c0-.27,0-.54,0-.82L26,14a14.09,14.09,0,0,0-.41-2.32l-.07-.17c-.19-.64-.4-1.24-.66-1.88l-.09-.14-.07-.17A.77.77,0,0,0,24.58,9a4.94,4.94,0,0,0-.66-1.11A18.51,18.51,0,0,0,22.7,6.39c-.22-.23-.34-.46-.56-.67s-.26-.12-.56-.37-.66-.54-1-.8l0,0s0,0,0,0l-.14-.09,0,0L20,4.19l-.16-.07,0,0,0,0c-.12-.1-.3-.16-.37-.24.09,0,.36.16.38.12a2.07,2.07,0,0,0-1-.42c-.09,0-.23-.13-.22-.15s-.14-.14-.42-.23-.3-.06-.29,0l-.16-.06A.56.56,0,0,0,17.46,3l0,0L17.32,3c-.2-.07-.52-.14-.41-.2s-.05-.09-.28-.16a1.62,1.62,0,0,0-.58-.12c.23.07.5.21.41.26l-.33-.08a1.66,1.66,0,0,0-.23-.19s-.05-.06-.16-.09a.38.38,0,0,0-.19-.22,2,2,0,0,1,.34,0,3.69,3.69,0,0,1,1,.32,2.56,2.56,0,0,0,.68.21l.94.4a21,21,0,0,1,2.21,1.2h0c.4.25.74.61,1.13.9a3.26,3.26,0,0,1,.5.45l.18.17c.12.11.25.26.37.39.37.45.72.85,1,1.28l0-.07V7.5a2.69,2.69,0,0,0,.31.42L24.3,8l.05.08a6.36,6.36,0,0,0,.44.79.64.64,0,0,1,.08.14,5.11,5.11,0,0,0,.25.52s0,0,0,0,0,0,0-.05a4.45,4.45,0,0,0-.63-1.41l-.28-.44a7.69,7.69,0,0,0-2-2.33A1.22,1.22,0,0,0,22,5.1a1.51,1.51,0,0,0-.28-.2l-.27-.21L21,4.32a8.44,8.44,0,0,0-2.07-1.26c-.33-.16-.7-.27-1.05-.45s-.6-.29-.49-.12-.2,0-.34-.07-.57-.18-.86-.24a.23.23,0,0,1-.11,0,.5.5,0,0,0-.2,0l-.13,0a6.37,6.37,0,0,0-.75-.2,1.68,1.68,0,0,0-.33-.07s-.06-.06-.2-.07a.84.84,0,0,0-.18,0h0s-.09,0-.24,0h0s-.08,0-.18,0a.56.56,0,0,1-.13,0l-.85.12a1.93,1.93,0,0,0-.48,0,12.89,12.89,0,0,0-2,.29h0a6.56,6.56,0,0,0-1,.24,1.78,1.78,0,0,0-.51.14,1.87,1.87,0,0,0-.4.12c-.18.06-.1.08-.21.14A.41.41,0,0,0,8,2.81S7.76,3,7.82,3,7.9,3,8,3s.18,0,.38,0l0,0h0l0,0L8.8,3s.07.08.25,0l-.28.18A2.68,2.68,0,0,0,8,3.69a7.24,7.24,0,0,0-1,.8l0,0c-.16.18-.44.34-.55.51h0a3.63,3.63,0,0,0-.27.28l0,0,0,0-.48.48a2.4,2.4,0,0,0-.6.59c-.22.3-.65.77-.89,1.15a6.51,6.51,0,0,0-.75,1.21l0,0v0h0A10.6,10.6,0,0,0,2.7,10.1a3.82,3.82,0,0,0-.33.92l-.08.24a8.29,8.29,0,0,0-.46,2,3.19,3.19,0,0,0,0,1,.17.17,0,0,1,0,.1.92.92,0,0,0,0,.32,3.66,3.66,0,0,0,0,1h0a1.41,1.41,0,0,0,0,.53h0c0,.12.05.35.06.51a.22.22,0,0,1,0,.11.88.88,0,0,0,0,.33,1.36,1.36,0,0,0,.17.59h0a1.39,1.39,0,0,0,.14.42l.16.53a6.7,6.7,0,0,0,.34.86l.13.32a1.87,1.87,0,0,0,.25.51l.09.19a.6.6,0,0,0,.09.15l.08.15a9.11,9.11,0,0,0,.79,1.31c.08.1.14.16.16.14s0-.1-.09-.21l-.71-1.12-.25-.46a8.23,8.23,0,0,1-.47-1v0L2.62,19c-.08-.15-.12-.37-.19-.52a2.17,2.17,0,0,0-.07-.24l0,0h0l.06.09,0-.1h0s0-.09,0-.14a1.72,1.72,0,0,0-.06-.32h0a.45.45,0,0,0,0-.11,10.27,10.27,0,0,0,.36,1.11c.12.35.31.69.42,1.06s.23.63.27.43c0,0,.13.16.19.29s.27.53.44.78a.88.88,0,0,1,.06.1.59.59,0,0,0,.11.17.72.72,0,0,1,.07.11,5.38,5.38,0,0,0,1.45,1.86,3.08,3.08,0,0,1,.25.27,2.26,2.26,0,0,0,.46.47,11.89,11.89,0,0,0,1.64,1.23h0A6.18,6.18,0,0,0,9,26.1a1.74,1.74,0,0,0,.46.27,3,3,0,0,0,.37.2c.17.08.13,0,.24.05a.52.52,0,0,0,.21,0c.06,0,.29.09.27,0s0-.07-.14-.13-.12-.14-.3-.24h0l0,0L9.82,26c0-.06,0-.13-.24-.27a.86.86,0,0,1-.1-.16l.54.22c.18.06.29.06.31,0s-.17-.11-.29-.17a.67.67,0,0,1-.27-.2c0-.06.2,0,.31.05a9.28,9.28,0,0,0,1.26.39A2.06,2.06,0,0,0,12,26h0a3.79,3.79,0,0,0,.83.14l-.07,0h0l0,0a2.79,2.79,0,0,0,.79.07h0a5.3,5.3,0,0,0,1.33.05c.37-.06,1-.09,1.44-.18a6.57,6.57,0,0,0,1.39-.33h0a11.24,11.24,0,0,0,2.53-1,9.12,9.12,0,0,0,1.52-.91h0s.07,0,.16-.06l0-.06h0l0,.06a.41.41,0,0,0,.17,0,2.25,2.25,0,0,1-.37.28h0c-.13.07-.31.21-.43.26-.29.1-.59.37-.9.52l-.26.13c-.18,0-.4.21-.59.26l-.24.1a4.11,4.11,0,0,1-1,.37l-.05,0h0c-1,.25-1.72.51-2.49.69A12.6,12.6,0,0,0,20,25.15l.29-.15a2.65,2.65,0,0,0,.74-.39l.4-.25c.13-.07.29-.19.42-.27l.12-.08a2.38,2.38,0,0,0,.42-.3l.13-.1.17-.11.19-.18a.5.5,0,0,0,.17-.14h0s.08,0,.15-.11a.76.76,0,0,1,.09-.09,12.35,12.35,0,0,0,1.07-1.53,4.27,4.27,0,0,0,.33-.58,1.43,1.43,0,0,0,.23-.39l.12-.16a10.13,10.13,0,0,0,.63-2,2.47,2.47,0,0,0,.2-.86A7.63,7.63,0,0,0,26,16.18ZM23.67,7h0s0,0,0,0ZM8.4,2.74s0,0,0,0l.05,0S8.4,2.73,8.4,2.74ZM9.92,26.45s0,0,0,0l-.05,0S9.92,26.46,9.92,26.45ZM25.26,14h0v0Zm-.08,1.66a3.3,3.3,0,0,0,0-.77A2.82,2.82,0,0,1,25.18,15.66Zm0-5-.05-.09,0-.1Zm-.1,1.52h0s0,.06,0,0A.1.1,0,0,0,25.1,12.18Zm-.23,2.5Zm-.28-.94s0,.08,0,.12,0,0,0-.07S24.59,13.79,24.59,13.74Zm-.16,1.85h0v0S24.43,15.59,24.43,15.59Zm-2.52,6.49L22,22a4.9,4.9,0,0,1,.42-.87A4,4,0,0,1,22,22s0,0,0,.05ZM6.44,21.9l-.05,0h0l0,0h0l0,0h0l0,0Zm-2.12-.63,0,0s0,0,0,0h0c-.11-.22-.21-.5-.11-.47s.23.39.37.56.14.19.21.3.13.32.07.4a2.48,2.48,0,0,0-.27-.38,1.52,1.52,0,0,0-.27-.41S4.33,21.26,4.32,21.27Zm.33-3.92h0v0Zm-.16.72,0,0a.3.3,0,0,1-.06.16c0-.07,0-.17.06-.16a.71.71,0,0,0,0-.15C4.48,18,4.47,18,4.49,18.07ZM4.11,20.2v0a.81.81,0,0,0,.12.18h0Zm-.19-1.14,0-.08,0-.07ZM3.54,17.5s0,0,0-.06v0S3.53,17.5,3.54,17.5Zm-1.09-1,0-.05h0Zm.31,1.15s0,.08,0,.18a.42.42,0,0,1-.06-.19S2.74,17.63,2.76,17.65ZM3.34,17a.65.65,0,0,1-.08-.25A1.86,1.86,0,0,0,3.34,17Zm.09.64c0-.08,0-.15,0-.15S3.42,17.54,3.43,17.62ZM2.29,13.83v0h0v0Zm-.08.49v0h0l0,.18v0a.9.9,0,0,1,0-.18ZM2,16.24H2v.1a.36.36,0,0,0,0-.09s-.07-.06-.1-.11A.27.27,0,0,1,2,16.24Zm1.57,3.29.06.15a1,1,0,0,0,.07.17v0a.67.67,0,0,0,.07.17c.09.19.25.47.14.43s0,0,0,0l-.1-.19h0c0-.09-.13-.25-.18-.39a1.46,1.46,0,0,0-.12-.35S3.56,19.55,3.58,19.53ZM6.65,6h0Zm8.17-2.52h0s-.06,0-.07,0S14.82,3.49,14.82,3.48ZM14,3.37s0,0,0,0h.18S14.05,3.35,14,3.37Zm.17.12ZM22.8,19s0-.05,0-.06h0S22.8,19,22.8,19Zm0,.09v0h0Zm1.24-3.53,0,.1a.24.24,0,0,0,0-.07S24.06,15.52,24.07,15.51Zm-.24-6.08v0h0l0,0a.06.06,0,0,0,0,0S23.81,9.4,23.83,9.43Zm0-1.18h0Zm-.17-.15h0ZM20,4.9l-.23-.11A.73.73,0,0,1,20,4.9Zm-.73-.34h.06l0,0Zm.08,0s0-.07-.1-.12S19.36,4.48,19.34,4.51ZM18,3.75l.06,0-.16-.06ZM16.74,3l.19,0h0a.93.93,0,0,0-.22,0ZM14.45,1.74h0Zm-2,.07h0Zm-8.25,6v.05h0Zm0,.07h0l0,0ZM1.87,15.26s0,0,0,0v0S1.86,15.27,1.87,15.26Zm.28,2.24h0ZM3.41,20l-.1-.24,0,.06a1.78,1.78,0,0,0,.09.23Zm.82,1.58a3.58,3.58,0,0,1-.49-.95.61.61,0,0,0-.05-.12,1,1,0,0,1,.09.17A2,2,0,0,0,4,21L4,21a7.88,7.88,0,0,0,.82,1l0,0C4.73,22.15,4.47,21.84,4.23,21.55ZM5,19.22c.06,0,.08-.09,0-.25H5l.06.28C5.1,19.42,5,19.29,5,19.22Zm.14,2.16s0-.05,0,0,0,0,0,.06Zm.81,0h0s0,.05.06,0S5.91,21.38,5.9,21.39Zm.36.54a1.13,1.13,0,0,0,.13.1h0l0,.05,0,0Zm.17,2.35v0l.08.08Zm.49-.21h0c-.08-.09-.13-.17-.21-.25l0,0h0l0,0c.2.15.22.21.21.25l0,.05Zm.86-1.44.1,0s0,0,0,.05ZM8.41,24h0Zm1.28.1.11,0A.45.45,0,0,1,9.69,24.14Zm.63.33a0,0,0,0,0,0,0h0a.45.45,0,0,1-.26,0,.56.56,0,0,1-.17-.07h0l-.08,0,.09,0,.17.07.26,0h0s0,0,0,0l-.1-.11h0l0,0a3.14,3.14,0,0,1-.33-.24h0l-.27-.17.24.14,0,0a1.15,1.15,0,0,1,.33.24l.05,0h0c.09,0,.17.1.1.11Zm.31.05-.13-.05.16.06Zm.7.9Zm.66-.31s0,0,0,0l.06,0Zm.91.21Zm.6.09-.2-.09h.23C13.58,25.36,13.61,25.39,13.5,25.41Zm.95-.75.09,0h0l0,0-.11,0Zm.12.18h0l-.08,0A.12.12,0,0,0,14.57,24.84Zm2,1h0s0,0,0,0l0,0s0,0,0,0,0,0,.07,0Zm1-1.2s-.11,0-.12,0h0v0h.12Zm2.37-1.09a.7.7,0,0,1-.36.11c-.08,0,.08-.12.22-.21s.13-.09.09-.1-.23.12-.3.11c.12-.09.28-.14.4-.24,0,0-.05,0-.06,0H20l.08,0c.16-.06.33-.22.51-.3a2.52,2.52,0,0,0,.62-.48h0v0h0c.14-.2-.05,0-.17.05l-.05,0h0c-.1,0-.27.18-.36.2a11.45,11.45,0,0,0,1.18-1l.08-.08v0c0,.05,0,0,0,0l0-.06h0c.06-.07.12-.14.12-.19a.6.6,0,0,1,.09-.21c.1,0,.24-.18.3-.17a.36.36,0,0,0-.08.18,4,4,0,0,0-.36.61,3.33,3.33,0,0,1-.32.55l-.28.33-.07.05A14.66,14.66,0,0,1,19.93,23.57Zm.52-.1.05,0,.05,0,.06,0-.06,0Z" transform="translate(-1.48 -1.64)"/><path class="cls-2" d="M4.84,6.35c0,.12-.35.46-.41.62C4.92,6.41,4.94,6.43,4.84,6.35Z" transform="translate(-1.48 -1.64)"/><path class="cls-2" d="M1.77,12.83a3.51,3.51,0,0,1,.12-.49c.13-.27.14-.67.26-1l.1-.28c.08-.16.13-.43.23-.6l.1-.24a4.28,4.28,0,0,1,.42-1l0,0,0,0c.31-.51.55-1,.78-1.38l.2-.3c.06-.1.11-.19.09-.21h0a3.35,3.35,0,0,1,.21-.36,12.28,12.28,0,0,0-1.93,3.39s-.05,0-.09.13-.17.48-.23.72a2.91,2.91,0,0,0-.19.69l-.11.46c0,.14-.07.34-.11.49a.52.52,0,0,1,0,.14,1.82,1.82,0,0,0-.08.51l0,.16c0,.07,0,.15,0,.2s0,.39,0,.6v0s0,0,0,0a1.16,1.16,0,0,0,0-.16h0a3.6,3.6,0,0,0,0-.36.49.49,0,0,1,0-.12,1.1,1.1,0,0,0,.06-.35l0,.12,0,0h0l0,0,0-.12c.06-.15.05-.45.11-.63Z" transform="translate(-1.48 -1.64)"/><path class="cls-2" d="M23.39,6.19a3.34,3.34,0,0,0-.77-.78C22.87,5.61,23.14,6,23.39,6.19Z" transform="translate(-1.48 -1.64)"/><path class="cls-2" d="M24.72,8.1l.26.48c.05.08.09.17.12.21s0,0,0-.13a4.88,4.88,0,0,0-.52-.93l-.09-.12c-.07-.1-.14-.2-.16-.19s0,.09.07.17S24.62,8,24.72,8.1Z" transform="translate(-1.48 -1.64)"/><path class="cls-2" d="M5.83,5.38a.22.22,0,0,0-.12.07l-.12.14.12-.08C5.78,5.45,5.84,5.39,5.83,5.38Z" transform="translate(-1.48 -1.64)"/><path class="cls-2" d="M5.3,5.9l0-.07-.11.1s0,.06,0,.05Z" transform="translate(-1.48 -1.64)"/><path class="cls-2" d="M25.07,20.27s0,0-.08.12a.21.21,0,0,0,0,.06.41.41,0,0,0,.09-.12C25.1,20.27,25.11,20.22,25.07,20.27Z" transform="translate(-1.48 -1.64)"/><path class="cls-2" d="M26.05,12.17s0-.14,0-.23l-.11-.53c0-.1-.07-.09-.07,0L26,12C26,12.07,26,12.18,26.05,12.17Z" transform="translate(-1.48 -1.64)"/><polygon class="cls-2" points="18.89 2.77 18.94 2.82 18.92 2.78 18.89 2.77"/><path class="cls-3" d="M15,22.22V14.88H17.5L17.87,12H15V10.2c0-.83.22-1.39,1.41-1.39H18V6.25a18.5,18.5,0,0,0-2.21-.12,3.45,3.45,0,0,0-3.68,3.78V12H9.61v2.86h2.47v7.34Z" transform="translate(-1.48 -1.64)"/></g></svg>