<svg id="Layer_1" data-name="Layer 1" xmlns="http://www.w3.org/2000/svg" xmlns:xlink="http://www.w3.org/1999/xlink" viewBox="0 0 24.61 25.08"><defs><style>.cls-1{opacity:0.84;}.cls-10,.cls-11,.cls-12,.cls-13,.cls-14,.cls-15,.cls-2,.cls-3,.cls-4,.cls-5,.cls-6,.cls-7,.cls-8,.cls-9{fill-rule:evenodd;}.cls-2{fill:url(#radial-gradient);}.cls-3{fill:url(#radial-gradient-2);}.cls-4{fill:url(#radial-gradient-3);}.cls-5{fill:url(#radial-gradient-4);}.cls-6{fill:url(#radial-gradient-5);}.cls-7{fill:url(#radial-gradient-6);}.cls-8{fill:url(#radial-gradient-9);}.cls-9{fill:url(#radial-gradient-10);}.cls-10{fill:url(#radial-gradient-11);}.cls-11{fill:url(#radial-gradient-12);}.cls-12{fill:url(#radial-gradient-13);}.cls-13{fill:url(#radial-gradient-14);}.cls-14{fill:url(#radial-gradient-15);}.cls-15{fill:url(#radial-gradient-16);}.cls-16{fill:#fff;}</style><radialGradient id="radial-gradient" cx="1.65" cy="24.89" r="41.87" gradientTransform="translate(0.48 -0.02) scale(0.99)" gradientUnits="userSpaceOnUse"><stop offset="0" stop-color="#f9ed32"/><stop offset="0.06" stop-color="#f8d939"/><stop offset="0.19" stop-color="#f5a54d"/><stop offset="0.37" stop-color="#f0536c"/><stop offset="0.45" stop-color="#ee2a7b"/><stop offset="0.6" stop-color="#9e2aa7"/><stop offset="0.74" stop-color="#5b2acd"/><stop offset="0.86" stop-color="#2a2ae8"/><stop offset="0.95" stop-color="#0b2af9"/><stop offset="1" stop-color="#002aff"/></radialGradient><radialGradient id="radial-gradient-2" cx="1.65" cy="24.89" r="41.87" xlink:href="#radial-gradient"/><radialGradient id="radial-gradient-3" cx="1.65" cy="24.89" r="41.87" xlink:href="#radial-gradient"/><radialGradient id="radial-gradient-4" cx="1.65" cy="24.89" r="41.86" xlink:href="#radial-gradient"/><radialGradient id="radial-gradient-5" cx="1.65" cy="24.89" r="41.87" xlink:href="#radial-gradient"/><radialGradient id="radial-gradient-6" cx="1.64" cy="24.89" r="41.88" xlink:href="#radial-gradient"/><radialGradient id="radial-gradient-9" cx="1.65" cy="24.89" r="41.87" xlink:href="#radial-gradient"/><radialGradient id="radial-gradient-10" cx="1.65" cy="24.89" r="41.87" xlink:href="#radial-gradient"/><radialGradient id="radial-gradient-11" cx="1.65" cy="24.89" r="41.87" xlink:href="#radial-gradient"/><radialGradient id="radial-gradient-12" cx="1.65" cy="24.89" r="41.86" xlink:href="#radial-gradient"/><radialGradient id="radial-gradient-13" cx="1.65" cy="24.89" r="41.87" xlink:href="#radial-gradient"/><radialGradient id="radial-gradient-14" cx="1.64" cy="24.89" r="41.87" xlink:href="#radial-gradient"/><radialGradient id="radial-gradient-15" cx="1.64" cy="24.89" r="41.87" xlink:href="#radial-gradient"/><radialGradient id="radial-gradient-16" cx="1.64" cy="24.89" r="41.87" gradientTransform="translate(-1.02 -1.73) scale(0.99)" xlink:href="#radial-gradient"/></defs><g class="cls-1"><path class="cls-2" d="M15,26.49c.12-.06.58-.08.73-.16C15,26.39,15,26.36,15,26.49Z" transform="translate(-1.5 -1.71)"/><path class="cls-3" d="M1.79,13.49a3.07,3.07,0,0,0,0,1.09C1.74,14.26,1.84,13.78,1.79,13.49Z" transform="translate(-1.5 -1.71)"/><path class="cls-4" d="M13.63,26.48a.23.23,0,0,0,.13,0l.19,0-.15,0C13.71,26.46,13.63,26.46,13.63,26.48Z" transform="translate(-1.5 -1.71)"/><path class="cls-5" d="M14.37,26.48l-.07,0,.15,0s.07,0,0,0Z" transform="translate(-1.5 -1.71)"/><path class="cls-6" d="M15.56,1.92l1.31.29.49.15a7.15,7.15,0,0,1,1,.38l0,0,.5.22c.16.05.34.18.5.24s.55.29.78.44a1.33,1.33,0,0,0,.33.19c.2.15.4.28.62.43s.22.16.29.19l.16.1a1.73,1.73,0,0,0-.4-.35l-.74-.51a2.16,2.16,0,0,0-.65-.37L19.28,3a5.76,5.76,0,0,0-.85-.37l-.31-.14a1.9,1.9,0,0,0-.54-.18l-.19-.07-.18,0-.15,0a8.07,8.07,0,0,0-1.49-.36c-.14,0-.21,0-.22,0S15.43,1.9,15.56,1.92Zm4.68,1.72h0a.82.82,0,0,1,.17.1l-.17-.1Z" transform="translate(-1.5 -1.71)"/><path class="cls-7" d="M24.36,21.5h0l0,0Z" transform="translate(-1.5 -1.71)"/><path class="cls-6" d="M26,16.28v0a4.62,4.62,0,0,0,.07-1l0,.08a.74.74,0,0,0,0-.21v-.92l0-.16a14.09,14.09,0,0,0-.41-2.32l-.07-.17c-.19-.64-.4-1.24-.66-1.88l-.09-.14-.07-.17a.77.77,0,0,0-.15-.32A4.94,4.94,0,0,0,23.94,8a18.51,18.51,0,0,0-1.22-1.49c-.22-.23-.34-.46-.56-.67s-.26-.12-.56-.37-.65-.54-1-.8l0,0s0,0,0,0l-.14-.09,0,0L20,4.26l-.16-.07,0,0,0,0c-.12-.1-.3-.16-.36-.24s.35.16.37.12a2.07,2.07,0,0,0-1-.42c-.09-.05-.23-.13-.22-.15s-.14-.14-.42-.23-.3-.06-.29,0l-.16-.06a.56.56,0,0,0-.17-.07l0,0A1,1,0,0,0,17.34,3c-.2-.08-.52-.15-.41-.21s-.05-.09-.28-.16a1.62,1.62,0,0,0-.58-.12c.23.07.5.21.41.26l-.33-.08a2.33,2.33,0,0,0-.22-.19.26.26,0,0,0-.17-.08.34.34,0,0,0-.19-.23,2,2,0,0,1,.34,0,3.87,3.87,0,0,1,1,.32,2.39,2.39,0,0,0,.67.21l.94.4a20,20,0,0,1,2.21,1.2h0c.4.25.74.61,1.13.9a3.26,3.26,0,0,1,.5.45l.18.17a4.59,4.59,0,0,1,.37.39c.37.45.72.85,1,1.28l0-.07v.07a2.69,2.69,0,0,0,.31.42l.05.07.05.08a6.36,6.36,0,0,0,.44.79.64.64,0,0,1,.08.14c.09.19.18.38.26.52s0,0,0,0,0,0,0-.05a4.45,4.45,0,0,0-.63-1.41l-.28-.44a7.69,7.69,0,0,0-2-2.33A1,1,0,0,0,22,5.17a1.51,1.51,0,0,0-.28-.2l-.27-.21L21,4.39A8.44,8.44,0,0,0,19,3.13c-.33-.16-.7-.27-1.05-.45s-.6-.29-.48-.12-.21,0-.35-.07-.57-.18-.86-.24a.26.26,0,0,1-.11,0,.5.5,0,0,0-.2,0l-.13,0A5.89,5.89,0,0,0,15,2a1.68,1.68,0,0,0-.33-.07s-.06-.06-.19-.07l-.19,0h0s-.09,0-.24,0h0s-.07,0-.18,0a.24.24,0,0,1-.12,0c-.29,0-.57.07-.86.12a1.93,1.93,0,0,0-.48,0,12.89,12.89,0,0,0-2,.29h0a6.56,6.56,0,0,0-1,.24,2.18,2.18,0,0,0-.51.14,1.66,1.66,0,0,0-.39.12c-.18.06-.11.08-.22.14a.55.55,0,0,0-.17.11C8,2.92,7.78,3,7.84,3s.08,0,.19,0,.18,0,.38,0l0,0h0l0,0,.41.07c0,.05.08.08.25,0l-.28.18A2.68,2.68,0,0,0,8,3.76a7.84,7.84,0,0,0-1,.8l0,0c-.16.18-.44.34-.55.51h0a2.47,2.47,0,0,0-.28.28l0,0,0,0-.48.48a2.4,2.4,0,0,0-.6.59c-.22.3-.65.77-.89,1.15a6.51,6.51,0,0,0-.75,1.21l0,0v0h0a12.11,12.11,0,0,0-.67,1.35,3.82,3.82,0,0,0-.33.92l-.08.24a8.27,8.27,0,0,0-.45,1.95,2.92,2.92,0,0,0,0,1,.17.17,0,0,1,0,.1.92.92,0,0,0,0,.32,4.11,4.11,0,0,0,0,1h0a1.41,1.41,0,0,0,0,.53h0a3.36,3.36,0,0,0,0,.51.22.22,0,0,1,0,.11,1.15,1.15,0,0,0,0,.33,1.51,1.51,0,0,0,.17.59h0a1.39,1.39,0,0,0,.14.42l.16.53a6.7,6.7,0,0,0,.34.86l.13.32a1.87,1.87,0,0,0,.25.51l.09.19a.6.6,0,0,0,.09.15l.08.15a9.11,9.11,0,0,0,.79,1.31c.08.1.14.16.16.14s0-.1-.09-.21L3.55,21l-.25-.46a8.23,8.23,0,0,1-.47-1v0c-.06-.18-.12-.33-.19-.51a5.34,5.34,0,0,1-.18-.52,2.17,2.17,0,0,1-.07-.24l0,0h0l0,.09,0-.1h0s0-.09,0-.14a1.16,1.16,0,0,0-.06-.32h0a.45.45,0,0,0,0-.11,10.27,10.27,0,0,0,.36,1.11c.13.35.31.69.42,1.06s.23.63.27.43c0,0,.13.16.19.29s.28.54.44.78a.33.33,0,0,1,.06.1.59.59,0,0,0,.11.17.72.72,0,0,1,.07.11,5.38,5.38,0,0,0,1.45,1.86,3.08,3.08,0,0,1,.25.27,2,2,0,0,0,.46.47,12.53,12.53,0,0,0,1.64,1.23h0a5.79,5.79,0,0,0,.9.55,1.54,1.54,0,0,0,.45.27,3,3,0,0,0,.37.2c.17.08.13,0,.25.05a.46.46,0,0,0,.2,0c.06,0,.29.1.27,0s0-.07-.14-.13-.12-.14-.29-.24H10l.05,0-.25-.34c0-.06,0-.13-.24-.27a.86.86,0,0,1-.1-.16l.54.22c.19.06.29.06.31,0s-.16-.11-.29-.17-.26-.16-.26-.2.19,0,.3.05a9.28,9.28,0,0,0,1.26.39,2.06,2.06,0,0,0,.61.14h0a4.57,4.57,0,0,0,.83.15l-.07,0h0l.05,0a3.17,3.17,0,0,0,.79.06h0a5.32,5.32,0,0,0,1.33.05c.37-.06,1-.09,1.44-.18a6.57,6.57,0,0,0,1.39-.33h0a11.24,11.24,0,0,0,2.53-1,9.12,9.12,0,0,0,1.52-.91h0s.07,0,.16-.06l.05-.06h0l-.05.06a.41.41,0,0,0,.17,0,2.25,2.25,0,0,1-.37.28h0c-.13.07-.31.21-.43.26-.29.1-.58.37-.9.52l-.26.13c-.18.05-.4.21-.59.26l-.24.1a4.11,4.11,0,0,1-1,.37l-.05,0h0c-1,.25-1.72.51-2.49.69A12.6,12.6,0,0,0,20,25.22l.29-.15a2.65,2.65,0,0,0,.74-.39l.4-.25c.14-.07.29-.19.42-.27l.12-.08a2.38,2.38,0,0,0,.42-.3l.13-.1.17-.11.19-.18s.09-.05.17-.14h0s.08,0,.15-.11l.09-.09a13.61,13.61,0,0,0,1.08-1.53,5.57,5.57,0,0,0,.32-.58,1.43,1.43,0,0,0,.23-.39l.12-.16a9.49,9.49,0,0,0,.63-2,2.47,2.47,0,0,0,.2-.86A7.63,7.63,0,0,0,26,16.25Zm-2.35-9.2h0s0,0,0,0ZM8.43,2.81s0,0,0,0l.06,0S8.42,2.8,8.43,2.81ZM9.94,26.52s0,0,0,0l-.05,0S9.94,26.53,9.94,26.52ZM25.28,14.07h0v0Zm-.08,1.66a3.3,3.3,0,0,0,0-.77A2.82,2.82,0,0,1,25.2,15.73Zm0-5,0-.09,0-.1Zm-.1,1.52h0s0,.06,0,0A.1.1,0,0,0,25.12,12.25Zm-.23,2.5Zm-.28-.94s0,.08,0,.12,0,0,0-.07S24.61,13.86,24.61,13.81Zm-.16,1.85h0v0Zm-2.52,6.49L22,22a5.74,5.74,0,0,1,.42-.87A4,4,0,0,1,22,22s0,0,0,.05ZM6.46,22l0,0h0l0,0h0l0,0h0l0,0S6.45,22,6.46,22Zm-2.12-.63,0,0s0,0,0,0h0c-.11-.22-.2-.5-.11-.47s.23.39.37.56.14.19.21.3.13.32.07.4a3.24,3.24,0,0,0-.26-.38,1.87,1.87,0,0,0-.28-.41S4.35,21.33,4.34,21.34Zm.33-3.92h0v0Zm-.15.72,0,0a.3.3,0,0,1-.06.16c0-.07,0-.17.06-.16a.71.71,0,0,0,0-.15A1,1,0,0,0,4.52,18.14Zm-.39,2.13v0a.81.81,0,0,0,.12.18h0Zm-.19-1.14,0-.08,0-.07Zm-.38-1.56s0,0,0-.06v0S3.55,17.57,3.56,17.57Zm-1.09-1,0-.05h0Zm.31,1.15s0,.08,0,.18a.42.42,0,0,1-.06-.19S2.76,17.7,2.78,17.72Zm.58-.67a.65.65,0,0,1-.08-.25A1.86,1.86,0,0,0,3.36,17.05Zm.09.64c0-.08,0-.15,0-.15S3.44,17.61,3.45,17.69ZM2.31,13.9v0h0v0Zm-.08.49v0h0l0,.18v0a.9.9,0,0,1,0-.18ZM2,16.31h0v.1a.36.36,0,0,0,0-.09s-.06-.06-.1-.11A.27.27,0,0,1,2,16.31ZM3.6,19.6l.06.15a1,1,0,0,0,.07.17v0a.67.67,0,0,0,.07.17c.09.19.26.47.14.43s0,0,0,0l-.1-.2h0a1.81,1.81,0,0,0-.18-.39,2,2,0,0,0-.11-.35S3.58,19.62,3.6,19.6ZM6.67,6.07h0Zm8.17-2.52h0s-.06,0-.07,0S14.84,3.56,14.84,3.55ZM14,3.44h.17S14.07,3.42,14,3.44Zm.17.12ZM22.82,19s0-.05,0-.06h0S22.82,19.06,22.82,19Zm0,.09v0h0Zm1.24-3.53,0,.1a.24.24,0,0,0,0-.07S24.08,15.59,24.09,15.58Zm-.24-6.07h0l0,0v0A.17.17,0,0,0,23.85,9.51ZM23.8,8.32h0Zm-.17-.15h0ZM20,5l-.23-.11A.73.73,0,0,1,20,5Zm-.73-.34h.06l0,0A.13.13,0,0,0,19.28,4.63Zm.08,0s0-.07-.1-.12S19.38,4.56,19.36,4.58ZM18,3.82l.06,0-.16-.06Zm-1.23-.74.19,0h0a.93.93,0,0,0-.22,0ZM14.47,1.81h0Zm-2.05.07h0Zm-8.25,6v0h0Zm0,.07h0l0,0ZM1.89,15.33s0,0,0,0v0S1.88,15.34,1.89,15.33Zm.28,2.24h0ZM3.43,20l-.1-.24,0,.06a1.78,1.78,0,0,0,.09.23Zm.82,1.58a3.58,3.58,0,0,1-.49-.95.61.61,0,0,0,0-.12,1.06,1.06,0,0,1,.1.17,1.84,1.84,0,0,0,.18.33l.06.05a7.88,7.88,0,0,0,.82,1l0,0C4.75,22.22,4.49,21.91,4.25,21.62ZM5,19.29c.07,0,.08-.09,0-.25H5l.06.28C5.12,19.49,5,19.36,5,19.29Zm.14,2.16s0-.05,0,0,0,0,0,.06Zm.81,0h0s0,.05,0,0S5.93,21.45,5.92,21.46Zm.36.54a1.13,1.13,0,0,0,.13.1h0l0,.05,0,0Zm.18,2.35,0,0,.08.08Zm.48-.21h0c-.08-.09-.13-.17-.2-.25l0,0h0l0,0c.19.15.21.21.2.25l.05.05ZM7.8,22.7l.1,0s0,0,0,.05Zm.63,1.41h0Zm1.28.1.11,0A.45.45,0,0,1,9.71,24.21Zm.63.33s0,0,0,0h0a.45.45,0,0,1-.26,0,.43.43,0,0,1-.16-.07h0l-.08,0,.1,0,.16.07.26,0h0l-.11-.11h0l0,0a2.22,2.22,0,0,1-.32-.24h0L9.6,24l.24.14,0,0a1.07,1.07,0,0,1,.32.24l.05,0h0c.09,0,.17.1.11.11Zm.32.05-.14-.05.16.06Zm.69.9Zm.66-.31s0,0,0,0l.06,0Zm.91.21Zm.6.09-.2-.09h.23S13.63,25.46,13.52,25.48Zm1-.75.09,0h0l0,0-.11,0Zm.12.18h0l-.09,0A.12.12,0,0,0,14.59,24.91Zm2,1h0s0,0,0,0l0,0s0,0,0,0,0,0,.07,0Zm1-1.2s-.11,0-.12,0,0,0,0,0h0v0h.12ZM20,23.64c-.16.08-.3.14-.36.11s.08-.12.22-.21.13-.09.09-.1-.23.12-.3.11c.12-.09.28-.14.4-.24,0,0-.05,0-.06,0H20l.08,0c.16-.06.33-.22.51-.3a2.52,2.52,0,0,0,.62-.48h0l0,0h0c.14-.2-.05,0-.17.05l0,0h0c-.1,0-.27.18-.36.2a11.45,11.45,0,0,0,1.18-1l.08-.08v0c0,.05,0,0,.05,0l0-.06h0c.06-.07.12-.14.12-.19a.6.6,0,0,1,.09-.21c.1,0,.24-.18.3-.17s-.08.14-.07.18a4.13,4.13,0,0,0-.37.61,3.33,3.33,0,0,1-.32.55,3.92,3.92,0,0,0-.27.33l-.08,0A13.52,13.52,0,0,1,20,23.64Zm.52-.1.05,0,.05,0,.06,0-.06,0Z" transform="translate(-1.5 -1.71)"/><path class="cls-6" d="M4.86,6.42c0,.12-.35.46-.4.62C4.94,6.48,5,6.5,4.86,6.42Z" transform="translate(-1.5 -1.71)"/><path class="cls-8" d="M1.79,12.9c0-.14.07-.37.12-.49.13-.27.15-.67.27-1l.09-.28c.08-.16.13-.43.23-.6l.1-.24A4.8,4.8,0,0,1,3,9.34l0-.05,0,0c.31-.51.55-1,.78-1.38l.2-.3c.06-.1.11-.19.09-.21h0c.07-.12.13-.24.21-.36A12.28,12.28,0,0,0,2.41,10.4s-.05,0-.09.13c-.07.24-.17.48-.22.72a2.92,2.92,0,0,0-.2.69l-.11.46c0,.14-.07.34-.11.49a.52.52,0,0,1,0,.14,2.27,2.27,0,0,0-.08.51l0,.16-.05.2c0,.2,0,.39,0,.6v0s0,0,0,0a.91.91,0,0,0,0-.16h0a3.6,3.6,0,0,0,0-.36.49.49,0,0,1,0-.12,1.44,1.44,0,0,0,.07-.35l0,.12,0,0h0l0,0,0-.12c.05-.15,0-.45.1-.63Z" transform="translate(-1.5 -1.71)"/><path class="cls-9" d="M23.41,6.26a3.15,3.15,0,0,0-.77-.78C22.89,5.69,23.16,6.09,23.41,6.26Z" transform="translate(-1.5 -1.71)"/><path class="cls-10" d="M24.74,8.17l.26.48a1.6,1.6,0,0,0,.13.21c.07.08,0,0,0-.13a4.9,4.9,0,0,0-.53-.93l-.09-.12c-.07-.1-.14-.2-.16-.19s0,.09.07.17S24.64,8,24.74,8.17Z" transform="translate(-1.5 -1.71)"/><path class="cls-11" d="M5.85,5.45a.22.22,0,0,0-.12.07l-.12.14.12-.08C5.8,5.52,5.86,5.47,5.85,5.45Z" transform="translate(-1.5 -1.71)"/><path class="cls-12" d="M5.32,6l0-.07L5.24,6s0,.06,0,0Z" transform="translate(-1.5 -1.71)"/><path class="cls-13" d="M25.09,20.34s0,0-.08.12a.21.21,0,0,0,0,.06.69.69,0,0,0,.1-.12C25.12,20.34,25.13,20.3,25.09,20.34Z" transform="translate(-1.5 -1.71)"/><path class="cls-14" d="M26.07,12.24s0-.14,0-.23L26,11.48c0-.1-.07-.09-.07,0L26,12C26,12.14,26.05,12.25,26.07,12.24Z" transform="translate(-1.5 -1.71)"/><polygon class="cls-15" points="18.89 2.77 18.94 2.82 18.92 2.78 18.89 2.77"/><path class="cls-16" d="M16.41,20.71H11.22A4.18,4.18,0,0,1,7,16.53V12a4.18,4.18,0,0,1,4.18-4.18h5.19A4.18,4.18,0,0,1,20.58,12v4.57A4.18,4.18,0,0,1,16.41,20.71Zm-5.19-12A3.25,3.25,0,0,0,8,12v4.57a3.24,3.24,0,0,0,3.25,3.25h5.19a3.24,3.24,0,0,0,3.24-3.25V12a3.25,3.25,0,0,0-3.24-3.25Z" transform="translate(-1.5 -1.71)"/><path class="cls-16" d="M13.81,18a3.72,3.72,0,1,1,3.72-3.72A3.73,3.73,0,0,1,13.81,18Zm0-6.51a2.79,2.79,0,1,0,2.79,2.79A2.79,2.79,0,0,0,13.81,11.46Z" transform="translate(-1.5 -1.71)"/><path class="cls-16" d="M18.24,10.64a.77.77,0,0,1-1.54,0,.77.77,0,0,1,1.54,0Z" transform="translate(-1.5 -1.71)"/></g></svg>