<svg id="Layer_1" data-name="Layer 1" xmlns="http://www.w3.org/2000/svg" viewBox="0 0 64.53 19.43"><defs><style>.cls-1{opacity:0.62;}.cls-2{font-size:10.88px;font-family:Lato-Black, Lato;font-weight:800;}.cls-2,.cls-7{fill:#fff;}.cls-3{font-size:9.06px;}.cls-4{font-size:7.25px;font-family:Lato-Regular, Lato;font-weight:400;letter-spacing:-0.04em;}.cls-5{letter-spacing:0em;}.cls-6{letter-spacing:0.03em;}</style></defs><g class="cls-1"><text class="cls-2" transform="translate(12.75 9.4)">Estágios <tspan class="cls-3" x="43.13" y="0">&amp;</tspan><tspan x="49.68" y="0"> </tspan><tspan class="cls-4"><tspan x="0" y="8.7">V</tspan><tspan class="cls-5" x="4.62" y="8.7">A</tspan><tspan class="cls-6" x="9.58" y="8.7">GAS BRASIL</tspan></tspan></text><path class="cls-7" d="M3.24,18.52a9.35,9.35,0,0,0-.69-.72c-.09-.08-.08-.12,0-.2l3.32-3.32c.09-.09.14-.1.23,0,.74.75,1.49,1.49,2.24,2.23.1.1.09.15,0,.24-.39.38-.78.77-1.16,1.16-.09.09-.13.1-.22,0-.29-.3-.59-.58-.88-.88C6,17,6,17,5.9,17c-.47.49-1,1-1.43,1.44a.06.06,0,0,0,0,.06Z" transform="translate(-0.97 -0.48)"/><path class="cls-7" d="M8.28,1.43,9.42,2.58c.09.09.08.13,0,.21C8.67,3.53,7.93,4.27,7.19,5c-.11.11-.17.09-.27,0q-1.59-1.6-3.2-3.2c-.14-.13-.21-.23,0-.38h.66c-.11.19,0,.3.13.42L6.93,4.31c.1.11.16.11.26,0,.49-.5,1-1,1.48-1.48.15-.16.15-.16,0-.32s-.26-.25-.38-.39S8.1,2,8,2.12c-.25.26-.52.52-.78.77s-.17.16-.32,0C6.46,2.47,6,2,5.6,1.6c0-.05-.12-.09-.09-.17h.62a4.47,4.47,0,0,1,.63.6c.35.32.25.32.59,0A4.55,4.55,0,0,1,8,1.43Z" transform="translate(-0.97 -0.48)"/><path class="cls-7" d="M5.51,1.43a8.31,8.31,0,0,0,.65.68l.9.9L8,2c.07-.07.11-.08.18,0s.39.39.58.58.07.1,0,.17L7.14,4.44c-.07.07-.11,0-.17,0-.91-.91-1.81-1.82-2.72-2.72-.17-.17.06-.19.09-.28Z" transform="translate(-0.97 -0.48)"/><path class="cls-7" d="M9.19,15.85l-.11-.1L5.21,11.87l-.61-.6c-.07-.06-.06-.09,0-.15.41-.41.82-.81,1.22-1.23.11-.11.15,0,.21,0q1.53,1.52,3.05,3c.1.1.15.11.25,0,.28-.3.58-.58.86-.87.07-.08.11-.07.18,0l1.2,1.2c.07.07.09.11,0,.2L9.3,15.78S9.25,15.85,9.19,15.85Z" transform="translate(-0.97 -0.48)"/><path class="cls-7" d="M7.05,6.67l1-1c.07-.07.11-.1.2,0,.39.41.8.81,1.21,1.21.07.07.06.11,0,.17l-2.3,2.3c-.09.09-.13,0-.18,0L5.12,7.5,2.57,5c-.1-.09-.11-.14,0-.24.4-.38.79-.78,1.18-1.17.08-.09.12-.08.2,0,1,1,2,2,3,3Z" transform="translate(-0.97 -0.48)"/><path class="cls-7" d="M10.28,3.44c.45.44.88.88,1.31,1.31.07.07.06.1,0,.16L10.35,6.15c-.07.07-.1,0-.15,0L9,4.92c-.08-.08-.06-.12,0-.18Z" transform="translate(-0.97 -0.48)"/><path class="cls-7" d="M3.08,17.71l2.81-2.82c.07-.07.11-.08.19,0q.81.82,1.65,1.65c.07.07.07.11,0,.18s-.38.37-.56.57-.13.07-.21,0c-.28-.29-.58-.57-.86-.87-.08-.09-.13-.08-.21,0L4,18.34c-.1.11-.15.1-.25,0S3.29,17.92,3.08,17.71Z" transform="translate(-0.97 -0.48)"/><path class="cls-7" d="M5.94,10.45l.09.11,3,3c.11.11.16.1.27,0,.27-.29.56-.57.84-.85.08-.08.12-.08.19,0l.58.58c.07.06.06.1,0,.17q-.84.81-1.65,1.65c-.09.09-.13.06-.2,0-.72-.72-1.44-1.45-2.17-2.17-.55-.55-1.1-1.11-1.66-1.66-.09-.09-.1-.14,0-.23s.37-.37.55-.55A.21.21,0,0,1,5.94,10.45Z" transform="translate(-0.97 -0.48)"/><path class="cls-7" d="M7.06,8.8,7,8.72,3.18,4.93c-.08-.08-.08-.13,0-.2a6.88,6.88,0,0,0,.54-.54c.1-.11.15-.09.24,0l3,3c.11.11.17.12.27,0L8,6.31c.07-.08.11-.07.18,0s.39.39.58.58.08.09,0,.16L7.12,8.74Z" transform="translate(-0.97 -0.48)"/><path class="cls-7" d="M10.27,4.09l.07,0c.21.21.41.42.62.62.06,0,.06.09,0,.14-.21.2-.41.41-.62.62-.05.06-.09.05-.14,0L9.59,4.9s-.07-.07,0-.12l.66-.65Z" transform="translate(-0.97 -0.48)"/><path class="cls-7" d="M11.62,7l-3,3-.11.12a.14.14,0,0,0,0,.21l.6.59a.14.14,0,0,0,.22,0l.13-.12,2.18-2.18Z" transform="translate(-0.97 -0.48)"/><path class="cls-7" d="M11.62,8.53,9.34,10.82c-.1.1-.16.13-.26,0s-.33-.34-.51-.5-.11-.15,0-.25l3-3.05V6.39L7.91,10.1c-.08.08-.08.12,0,.2q.6.57,1.17,1.17c.1.1.15.1.24,0,.76-.77,1.53-1.54,2.3-2.3Z" transform="translate(-0.97 -0.48)"/><path class="cls-7" d="M11.62,10.68l-.52.51c-.07.07,0,.1,0,.16l.51.5Z" transform="translate(-0.97 -0.48)"/><path class="cls-7" d="M11.62,15,8.2,18.39s-.1.06-.1.13h.62v0l2.89-2.89Z" transform="translate(-0.97 -0.48)"/><path class="cls-7" d="M11.62,17.11l-1.4,1.41h.65a1.33,1.33,0,0,0,.19-.14l.56-.56Z" transform="translate(-0.97 -0.48)"/><path class="cls-7" d="M11.64,15.52,8.81,18.35c-.05,0-.11.09-.09.17h1.5a1,1,0,0,0,.2-.16l1.11-1.11.11-.11Z" transform="translate(-0.97 -0.48)"/><path class="cls-7" d="M1.2,1.43H1v1.3l.7.7.77-.76Z" transform="translate(-0.97 -0.48)"/><path class="cls-7" d="M3,6.93Q2.38,6.36,1.8,5.76c-.09-.1-.13-.08-.22,0l-.6.6V7l.61-.62c.08-.08.12-.09.21,0s.36.38.55.56.08.13,0,.21L1,8.52v.64l2-2C3.08,7.07,3.06,7,3,6.93Z" transform="translate(-0.97 -0.48)"/><path class="cls-7" d="M3,2.61l-.45-.45a6.88,6.88,0,0,1-.7-.73H1.2c0,.1.06.14.11.19l.93.93c.14.14.14.14,0,.28s-.28.27-.41.42-.15.12-.26,0L1,2.67v.69c.21.22.42.43.64.64.06.06.1.06.16,0L3,2.76C3.08,2.7,3.07,2.67,3,2.61Z" transform="translate(-0.97 -0.48)"/><path class="cls-7" d="M5.15,9,3.92,7.81l-.08-.07-.09.08L1,10.59v.63L3.74,8.46c.08-.08.13-.08.2,0l.66.66-1,.95L1,12.74v.63L5.15,9.21C5.21,9.14,5.22,9.11,5.15,9Z" transform="translate(-0.97 -0.48)"/><path class="cls-7" d="M5.13,13.32,4,12.13c-.09-.09-.13-.09-.22,0L2.05,13.81,1,14.88v.67A.1.1,0,0,1,1,15.47l2.72-2.72a.39.39,0,0,1,.1-.08l.08.08c.19.19.38.39.58.57s.06.12,0,.19L1.8,16.22c-.08.07-.12.09-.2,0L1,15.65S1,15.6,1,15.57v.66c.23.24.47.48.71.71l.05,0,3.41-3.4C5.23,13.42,5.2,13.38,5.13,13.32Z" transform="translate(-0.97 -0.48)"/><path class="cls-7" d="M1,18.52H2c-.29-.3-.59-.59-.88-.88C1,17.59,1,17.57,1,17.57Z" transform="translate(-0.97 -0.48)"/><polygon class="cls-7" points="0.01 10.46 0.01 12.77 3.8 8.68 2.82 7.66 0.01 10.46"/><path class="cls-7" d="M11.13,1.43l-.48.48c-.07.07,0,.11,0,.15l.83.84a.16.16,0,0,0,.12.05V1.43Z" transform="translate(-0.97 -0.48)"/><polygon class="cls-7" points="0.01 14.79 0.01 15.47 0.67 16.09 3.86 12.9 2.84 11.96 0.01 14.79"/><polygon class="cls-7" points="0.01 6.35 0.01 8.32 1.75 6.54 0.72 5.53 0.01 6.35"/></g></svg>