<svg id="Layer_1" data-name="Layer 1" xmlns="http://www.w3.org/2000/svg" viewBox="0 0 24.61 25.08"><defs><style>.cls-1{opacity:0.84;}.cls-2{fill:#7bc5f8;fill-rule:evenodd;}.cls-3{fill:#fff;}</style></defs><g class="cls-1"><path class="cls-2" d="M15,26.44c.12-.06.58-.08.73-.16C14.94,26.34,14.94,26.31,15,26.44Z" transform="translate(-1.44 -1.66)"/><path class="cls-2" d="M1.73,13.44a3.07,3.07,0,0,0,0,1.09C1.68,14.21,1.78,13.73,1.73,13.44Z" transform="translate(-1.44 -1.66)"/><path class="cls-2" d="M13.57,26.43a.23.23,0,0,0,.13,0h.19l-.14,0C13.65,26.41,13.57,26.41,13.57,26.43Z" transform="translate(-1.44 -1.66)"/><path class="cls-2" d="M14.31,26.43l-.07,0h.15s.07,0,0,0Z" transform="translate(-1.44 -1.66)"/><path class="cls-2" d="M15.51,1.87l1.3.29.49.15a7.15,7.15,0,0,1,1,.38l0,0,.5.22c.16,0,.34.18.5.24s.55.29.78.45a1.61,1.61,0,0,0,.33.18l.62.43c.09,0,.22.16.29.2l.16.09a1.73,1.73,0,0,0-.4-.35l-.74-.51a2.16,2.16,0,0,0-.65-.37L19.22,3a6.14,6.14,0,0,0-.84-.37l-.32-.14a2.37,2.37,0,0,0-.53-.18l-.2-.06a.58.58,0,0,0-.17-.06l-.16,0a8.07,8.07,0,0,0-1.49-.36c-.14,0-.21,0-.22,0S15.37,1.85,15.51,1.87Zm4.67,1.72h0a.59.59,0,0,1,.17.11l-.17-.11Z" transform="translate(-1.44 -1.66)"/><path class="cls-2" d="M24.3,21.45h0l0,0Z" transform="translate(-1.44 -1.66)"/><path class="cls-2" d="M26,16.23v0a4.06,4.06,0,0,0,.07-1l0,.08a.67.67,0,0,0,0-.2V15c0-.27,0-.53,0-.82L26,14a13.12,13.12,0,0,0-.41-2.32l-.07-.17a18.35,18.35,0,0,0-.66-1.88l-.09-.14-.07-.17A.77.77,0,0,0,24.54,9a5.17,5.17,0,0,0-.66-1.11,16.79,16.79,0,0,0-1.22-1.48c-.22-.23-.34-.47-.56-.68s-.25-.12-.56-.37-.65-.54-1-.79l0,0s0,0,0,0l-.14-.1,0,0-.43-.3-.16-.07-.06,0,0,0c-.12-.1-.3-.16-.36-.24s.35.16.37.12a2,2,0,0,0-1-.42c-.1,0-.24-.12-.23-.14s-.14-.14-.42-.24-.3,0-.29,0l-.16-.06A.47.47,0,0,0,17.42,3l0,0L17.28,3c-.2-.07-.52-.15-.41-.2s0-.1-.28-.17A1.62,1.62,0,0,0,16,2.5c.23.08.5.21.41.26l-.33-.08a1.06,1.06,0,0,0-.22-.18.22.22,0,0,0-.17-.09.34.34,0,0,0-.19-.23l.35,0a3.8,3.8,0,0,1,1,.32,2.39,2.39,0,0,0,.67.21l.94.4a20,20,0,0,1,2.21,1.2h0c.4.25.75.61,1.13.9a3.26,3.26,0,0,1,.5.45l.18.18a3.34,3.34,0,0,1,.37.38c.37.45.73.85,1,1.28l0-.07v0l0,0a2.71,2.71,0,0,0,.3.42l.06.07,0,.08a6.36,6.36,0,0,0,.44.79.64.64,0,0,1,.08.14c.09.19.18.38.26.52s0,0,0,0,0,0,0-.05a4.24,4.24,0,0,0-.63-1.41l-.28-.44a7.56,7.56,0,0,0-2-2.33,1,1,0,0,0-.27-.23,1.24,1.24,0,0,0-.28-.2l-.27-.21L21,4.34a8.44,8.44,0,0,0-2.07-1.26c-.33-.16-.7-.27-1.05-.45s-.6-.29-.48-.11c0,0-.21,0-.35-.08s-.57-.18-.86-.24a.26.26,0,0,1-.11,0,.77.77,0,0,0-.2,0l-.13,0C15.47,2,15.22,2,15,1.9a1.53,1.53,0,0,0-.33-.07s-.06-.05-.19-.07l-.19,0h0s-.09,0-.24,0h0s-.07,0-.18,0h-.12a7.9,7.9,0,0,0-.85.11,2,2,0,0,0-.49,0,12.89,12.89,0,0,0-2,.29h0a5.4,5.4,0,0,0-1,.25,1.73,1.73,0,0,0-.52.13,2.34,2.34,0,0,0-.39.12c-.18.06-.11.09-.22.14A.55.55,0,0,0,8,2.83S7.73,3,7.78,3,7.86,3,8,3a.61.61,0,0,0,.38,0l0,0h0l0,0L8.76,3s.08.08.25,0l-.28.19A2.67,2.67,0,0,0,8,3.71a8.77,8.77,0,0,0-1.05.8H7A5.47,5.47,0,0,0,6.4,5h0a1.77,1.77,0,0,0-.28.27l0,0,0,0-.48.48a2.79,2.79,0,0,0-.6.59c-.22.3-.64.77-.89,1.15a6.51,6.51,0,0,0-.75,1.21l0,0v0h0a13,13,0,0,0-.67,1.35,5.2,5.2,0,0,0-.33.92l-.08.24a8.24,8.24,0,0,0-.45,2,2.6,2.6,0,0,0,0,1,.25.25,0,0,1,0,.1,1,1,0,0,0,0,.32,4.11,4.11,0,0,0,0,1h0a2,2,0,0,0,0,.53h0a3.36,3.36,0,0,0,.05.51.52.52,0,0,1,0,.11.83.83,0,0,0,0,.33,1.46,1.46,0,0,0,.17.59h0a1.81,1.81,0,0,0,.14.43l.17.53a8,8,0,0,0,.33.86l.13.31a1.73,1.73,0,0,0,.25.51l.09.19a.75.75,0,0,0,.09.15l.08.15a8.6,8.6,0,0,0,.79,1.31c.09.11.14.16.17.14s0-.1-.1-.21l-.71-1.12-.25-.46a8.23,8.23,0,0,1-.47-1v0c-.06-.18-.12-.33-.19-.51s-.12-.37-.18-.52a2.17,2.17,0,0,1-.07-.24.08.08,0,0,0,0,0h0l0,.09,0-.09h0s0-.09,0-.15a1.23,1.23,0,0,0-.06-.32h0a.45.45,0,0,0,0-.11,10.27,10.27,0,0,0,.36,1.11c.13.35.31.69.42,1.07s.23.62.27.42c0,0,.13.17.19.29s.28.54.44.78a.33.33,0,0,1,.06.1.41.41,0,0,0,.11.17.35.35,0,0,1,.07.11,5.41,5.41,0,0,0,1.45,1.87,1.52,1.52,0,0,1,.25.26,1.86,1.86,0,0,0,.46.47A13.24,13.24,0,0,0,8,25.57H8a4.58,4.58,0,0,0,.9.55,1.54,1.54,0,0,0,.45.27,3,3,0,0,0,.37.2c.17.08.14,0,.25.05a.46.46,0,0,0,.2,0c.06,0,.29.1.27,0s0-.07-.14-.13-.12-.14-.29-.24h0L9.79,26c0-.06,0-.13-.25-.27a.86.86,0,0,1-.1-.16,4.72,4.72,0,0,0,.54.22c.19.07.29.06.31,0s-.16-.12-.29-.18-.26-.15-.26-.2.19,0,.3.06a11,11,0,0,0,1.26.38,2.06,2.06,0,0,0,.61.14h0a4.57,4.57,0,0,0,.83.15l-.06,0h0l.05,0a2.76,2.76,0,0,0,.79.06h0a5.32,5.32,0,0,0,1.33.05c.37-.06,1-.09,1.44-.18a6,6,0,0,0,1.39-.33h0a10.79,10.79,0,0,0,2.53-1,9.12,9.12,0,0,0,1.52-.91h0s.07,0,.17-.06l0-.06h0l-.05.06a.41.41,0,0,0,.16,0,2.25,2.25,0,0,1-.37.28h0c-.13.07-.31.21-.43.26-.29.1-.58.37-.9.52l-.26.13c-.18.06-.4.21-.59.27l-.24.1a5.22,5.22,0,0,1-1,.37l-.05,0h0c-1,.24-1.72.5-2.49.68a12.6,12.6,0,0,0,4.18-1.22l.29-.15a2.84,2.84,0,0,0,.75-.39l.39-.25a4.32,4.32,0,0,0,.42-.27l.12-.08a2.38,2.38,0,0,0,.42-.3l.13-.1.17-.11.19-.18a.46.46,0,0,0,.17-.13h0s.07,0,.15-.12a.34.34,0,0,1,.08-.09,12.75,12.75,0,0,0,1.08-1.53c.12-.19.23-.39.33-.58a1.69,1.69,0,0,0,.22-.39,1.83,1.83,0,0,1,.13-.16,10.08,10.08,0,0,0,.62-2,2.76,2.76,0,0,0,.21-.86A8.71,8.71,0,0,0,26,16.2ZM23.63,7h0s0,0,0,0ZM8.37,2.76s0,0,0,0l.06,0S8.36,2.75,8.37,2.76ZM9.88,26.47s0,0,0,0l-.05,0S9.88,26.48,9.88,26.47ZM25.22,14h0v0Zm-.08,1.66a3.3,3.3,0,0,0,0-.77A2.82,2.82,0,0,1,25.14,15.68Zm0-5s0-.08-.05-.08l0-.1Zm-.1,1.53h0s0,.06,0,0Zm-.23,2.49Zm-.28-.94c0,.05,0,.08,0,.12s0,0,0-.07S24.55,13.81,24.55,13.76Zm-.16,1.86h0v0ZM21.87,22.1l.06-.11a5.31,5.31,0,0,1,.42-.86,4,4,0,0,1-.42.86s0,0,0,.05ZM6.4,21.92s0,0-.05,0h0l0,0h0l0,0h0S6.39,21.91,6.4,21.92Zm-2.12-.63v0s0,0,0,0h0c-.11-.21-.2-.5-.11-.47s.24.4.37.56.14.19.21.3c.11.27.13.32.08.4-.07-.12-.17-.24-.27-.38a2.14,2.14,0,0,0-.28-.41S4.29,21.28,4.28,21.29Zm.34-3.92h0v0Zm-.16.73,0,0a.38.38,0,0,1-.06.17c0-.07,0-.18.06-.17a.66.66,0,0,0,0-.15C4.45,18,4.43,18,4.46,18.1Zm-.39,2.12v0a.81.81,0,0,0,.12.18h0Zm-.19-1.14,0-.08,0-.06ZM3.5,17.52s0,0,0-.06v0S3.49,17.52,3.5,17.52Zm-1.09-1a.17.17,0,0,1,0-.05h0A.12.12,0,0,0,2.41,16.52Zm.31,1.15s0,.08,0,.18a.39.39,0,0,1-.06-.19S2.71,17.65,2.72,17.67ZM3.3,17a.59.59,0,0,1-.08-.25A1.48,1.48,0,0,0,3.3,17Zm.09.64c0-.08,0-.15,0-.15S3.38,17.56,3.39,17.64ZM2.25,13.85v0h0v0Zm-.08.5h0l0,.18v0a.9.9,0,0,1,0-.18ZM2,16.26s0,0,0,0v.1a.36.36,0,0,0,0-.09s-.06-.05-.1-.11A.27.27,0,0,1,2,16.26Zm1.57,3.29.06.15a.73.73,0,0,0,.07.17v0a.67.67,0,0,0,.07.17c.09.19.26.47.14.43s0,0,0,0l-.09-.2h0a1.81,1.81,0,0,0-.18-.39,2.28,2.28,0,0,0-.11-.35S3.52,19.57,3.54,19.55ZM6.61,6h0ZM14.78,3.5h0s-.06,0-.06,0S14.78,3.51,14.78,3.5ZM14,3.39h.16Zm.16.12ZM22.76,19a.21.21,0,0,1,0-.07h0S22.76,19,22.76,19Zm0,.08v0h0ZM24,15.53l0,.1c0-.05,0-.05,0-.07S24,15.54,24,15.53Zm-.24-6.07h0v0a.1.1,0,0,1,0,0Zm-.05-1.19h0Zm-.17-.15h0v0ZM20,4.92l-.23-.11A.73.73,0,0,1,20,4.92Zm-.73-.34h.06l0,0Zm.08,0s0-.06-.1-.12S19.32,4.51,19.3,4.53Zm-1.37-.76.06,0-.16-.06ZM16.71,3l.19,0h0a.93.93,0,0,0-.22,0Zm-2.3-1.27h0Zm-2.05.07h0Zm-8.25,6v0h0Zm0,.07h0l0,0ZM1.83,15.28s0,0,0,0v0S1.82,15.29,1.83,15.28Zm.28,2.25ZM3.37,20l-.09-.24,0,.06A1.6,1.6,0,0,0,3.4,20Zm.82,1.58a3.9,3.9,0,0,1-.49-.95s0-.08,0-.12.07.12.09.17a1.84,1.84,0,0,0,.18.33l.06.05a7.88,7.88,0,0,0,.82,1l0,0C4.69,22.17,4.44,21.86,4.19,21.57Zm.72-2.33c.07,0,.08-.09,0-.25H5l.06.28C5.06,19.44,5,19.31,4.91,19.24Zm.14,2.17s0-.06,0,0,0,0,0,.07Zm.81,0h0s0,.05,0,0S5.88,21.4,5.86,21.41Zm.36.54s.1.1.13.11h0l0,0h0ZM6.4,24.3l0,0,.08.08Zm.48-.2v0c-.08-.09-.13-.16-.2-.25l0,0h0l0,0c.19.15.22.21.2.25s0,0,0,.05Zm.86-1.45.1,0s0,0,0,.05Zm.63,1.41h0v0Zm1.29.1.11,0A.3.3,0,0,1,9.66,24.16Zm.62.33h0a.45.45,0,0,1-.26,0,.43.43,0,0,1-.16-.07h0l-.08,0,.1,0,.16.07.26,0h0l-.11-.11h0l0,0a2.23,2.23,0,0,1-.32-.25h0l-.26-.17.23.15h0a.92.92,0,0,1,.32.25l0,0h0c.09.05.17.1.11.11Zm.32.06-.14-.06.16.06Zm.69.9h0Zm.66-.32s0,0,0,0a.14.14,0,0,0,.07,0Zm.91.22h0Zm.6.08-.2-.09.24,0S13.58,25.41,13.46,25.43Zm.95-.75.09,0h0l0,0-.11,0Zm.12.18h0l-.09,0Zm2,1h0s0,0,0,0l0,0s0,0,0,0,0,0,.07,0Zm1-1.2c-.05,0-.11,0-.12,0h0v0h.12Zm2.37-1.09c-.16.08-.3.14-.36.11s.08-.12.22-.21.13-.09.09-.1-.23.12-.3.11c.12-.09.28-.14.4-.24h-.06s.06,0,.06,0l.08-.05c.16-.06.33-.22.51-.29a2.63,2.63,0,0,0,.62-.49h0c.14-.2-.05,0-.17.05l-.05.05h0c-.1,0-.26.18-.36.21a12.91,12.91,0,0,0,1.18-1l.08-.07h0c0,.05,0,0,.05,0l.05-.06h0a.35.35,0,0,0,.12-.19.88.88,0,0,1,.09-.21c.1,0,.24-.18.3-.17s-.08.14-.07.18a4.13,4.13,0,0,0-.37.61,3.33,3.33,0,0,1-.32.55,3.92,3.92,0,0,0-.27.33.18.18,0,0,0-.07.05A14.81,14.81,0,0,1,19.89,23.59Zm.52-.09.05,0,.05,0,.06,0-.06,0Z" transform="translate(-1.44 -1.66)"/><path class="cls-2" d="M4.8,6.37c0,.13-.35.46-.4.63C4.88,6.43,4.9,6.45,4.8,6.37Z" transform="translate(-1.44 -1.66)"/><path class="cls-2" d="M1.73,12.85c0-.14.07-.36.12-.49s.15-.67.27-1l.09-.27c.08-.17.13-.44.23-.61l.1-.24a4.8,4.8,0,0,1,.42-1l0,0,0,0c.31-.51.55-1,.78-1.38l.2-.3c.06-.1.11-.19.09-.21h0L4.28,7a12.09,12.09,0,0,0-1.93,3.38s-.05,0-.08.13A6.67,6.67,0,0,0,2,11.2a2.87,2.87,0,0,0-.2.7l-.1.45c-.05.14-.08.34-.12.49a.41.41,0,0,1,0,.14,2.27,2.27,0,0,0-.08.51l0,.16-.05.2c0,.21,0,.39,0,.6a.23.23,0,0,0,0,0s0,0,0,0a.91.91,0,0,0,0-.16h0a1.88,1.88,0,0,0,0-.36s0-.08,0-.12a1.44,1.44,0,0,0,.07-.35l0,.12,0,.05h0a.06.06,0,0,1,0,0l0-.12c.05-.15,0-.45.1-.63Z" transform="translate(-1.44 -1.66)"/><path class="cls-2" d="M23.35,6.21a3.09,3.09,0,0,0-.77-.77C22.83,5.64,23.1,6,23.35,6.21Z" transform="translate(-1.44 -1.66)"/><path class="cls-2" d="M24.68,8.12c.08.15.18.32.26.48a2.13,2.13,0,0,0,.13.21c.07.08,0,0,0-.13a4.9,4.9,0,0,0-.53-.93l-.08-.12c-.07-.1-.15-.2-.17-.19s0,.09.08.17S24.58,8,24.68,8.12Z" transform="translate(-1.44 -1.66)"/><path class="cls-2" d="M5.79,5.4a.22.22,0,0,0-.12.07l-.12.15.12-.09C5.74,5.47,5.8,5.42,5.79,5.4Z" transform="translate(-1.44 -1.66)"/><path class="cls-2" d="M5.27,5.92l0-.06L5.18,6s0,.06,0,0Z" transform="translate(-1.44 -1.66)"/><path class="cls-2" d="M25,20.3s0,0-.08.11,0,.06,0,.06l.09-.12C25.06,20.29,25.07,20.25,25,20.3Z" transform="translate(-1.44 -1.66)"/><path class="cls-2" d="M26,12.19s0-.13,0-.22l-.11-.54c0-.09-.07-.09-.06,0l.1.53C26,12.1,26,12.2,26,12.19Z" transform="translate(-1.44 -1.66)"/><polygon class="cls-2" points="18.89 2.77 18.94 2.82 18.92 2.78 18.89 2.77"/><polygon class="cls-3" points="18.62 7.22 18.62 7.22 18.62 7.23 18.62 7.22"/><path class="cls-3" d="M19.53,10.26a2,2,0,0,1-.53.07v-.05a4.17,4.17,0,0,0,1.06-1.21.22.22,0,0,0,0-.19l-.88.38-.74.33h0a2.94,2.94,0,0,0-2.14-.88,2.62,2.62,0,0,0-2.78,2.42,3.46,3.46,0,0,0,.12.92h0a8.72,8.72,0,0,1-3.38-1C8,9.92,7.9,9.14,7.9,9.14a3,3,0,0,0-.18,2.56,3.19,3.19,0,0,0,1,1.17h0A2.24,2.24,0,0,1,8,12.75a1.61,1.61,0,0,1-.5-.24c-.21.53.22,1.47,1,2.15a4.1,4.1,0,0,0,1.24.64l-1.25,0C8.4,16.55,11,17.27,11,17.27h0a4.24,4.24,0,0,1-2.61,1A5.15,5.15,0,0,1,7,18a6.81,6.81,0,0,0,4.65,1.66c4.67-.25,7.31-4.27,7.44-8.22h0a3.52,3.52,0,0,0,.68-.58,4.61,4.61,0,0,0,.76-1S19.82,10.18,19.53,10.26Z" transform="translate(-1.44 -1.66)"/><path class="cls-3" d="M20.06,8.88Z" transform="translate(-1.44 -1.66)"/></g></svg>